<?xml version="1.0" encoding="UTF-8" standalone="no"?>
<svg
   xmlns:dc="http://purl.org/dc/elements/1.1/"
   xmlns:cc="http://creativecommons.org/ns#"
   xmlns:rdf="http://www.w3.org/1999/02/22-rdf-syntax-ns#"
   xmlns:svg="http://www.w3.org/2000/svg"
   xmlns="http://www.w3.org/2000/svg"
   xmlns:sodipodi="http://sodipodi.sourceforge.net/DTD/sodipodi-0.dtd"
   xmlns:inkscape="http://www.inkscape.org/namespaces/inkscape"
   width="30mm"
   height="52.916668mm"
   viewBox="0 0 30 52.916674"
   version="1.1"
   id="svg8"
   inkscape:version="1.0.1 (0767f8302a, 2020-10-17)"
   sodipodi:docname="pick_up_back1.svg"
   inkscape:export-filename="/home/karine/escoria-assets-testing/ressources/take_back/take_back_test.png"
   inkscape:export-xdpi="96"
   inkscape:export-ydpi="96">
  <defs
     id="defs2" />
  <sodipodi:namedview
     id="base"
     pagecolor="#ffffff"
     bordercolor="#666666"
     borderopacity="1.0"
     inkscape:pageopacity="0.0"
     inkscape:pageshadow="2"
     inkscape:zoom="5.4234355"
     inkscape:cx="56.692913"
     inkscape:cy="162.73842"
     inkscape:document-units="mm"
     inkscape:current-layer="layer1"
     inkscape:document-rotation="0"
     showgrid="false"
     inkscape:snap-grids="false"
     inkscape:snap-nodes="true"
     inkscape:snap-global="true"
     inkscape:snap-bbox="false"
     inkscape:window-width="1848"
     inkscape:window-height="1016"
     inkscape:window-x="72"
     inkscape:window-y="27"
     inkscape:window-maximized="1"
     fit-margin-top="0"
     fit-margin-left="0"
     fit-margin-right="0"
     fit-margin-bottom="0"
     showguides="true"
     inkscape:guide-bbox="true">
    <inkscape:grid
       type="xygrid"
       id="grid837"
       originx="-229.74266"
       originy="-92.807098" />
    <sodipodi:guide
       position="15.000101,58.07381"
       orientation="1,0"
       id="guide985" />
  </sodipodi:namedview>
  <metadata
     id="metadata5">
    <rdf:RDF>
      <cc:Work
         rdf:about="">
        <dc:format>image/svg+xml</dc:format>
        <dc:type
           rdf:resource="http://purl.org/dc/dcmitype/StillImage" />
        <dc:title />
      </cc:Work>
    </rdf:RDF>
  </metadata>
  <g
     inkscape:label="Calque 1"
     inkscape:groupmode="layer"
     id="layer1"
     transform="translate(-229.74265,-92.807017)">
    <g
       id="g882">
      <g
         id="g2021"
         style="fill:#917c6f;fill-opacity:1"
         transform="matrix(2.6202908,0,0,2.6202908,104.88236,27.180166)">
        <g
           id="g1742-7-1-3"
           transform="rotate(5.900964,-170.55953,31.676537)"
           style="fill:#917c6f;fill-opacity:1">
          <path
             id="path839-9-65-0-6-1"
             style="fill:#917c6f;fill-opacity:1;stroke:#000000;stroke-width:0.208387;stroke-linecap:square;stroke-miterlimit:4;stroke-dasharray:none;stroke-opacity:1;paint-order:markers stroke fill"
             d="m 56.926226,14.398792 c 0.147287,0.390464 -0.02387,0.756312 -0.653025,1.311119 -0.129738,0.114408 -0.282738,0.0062 -0.420859,-0.06238 -0.121133,-0.06019 -0.05204,-0.222338 -0.0301,-0.432016 0.01259,-0.120307 0.0829,-0.465616 0.01928,-0.506448 -0.07347,-0.04715 -0.247344,-0.265423 -0.338176,-0.143043 -0.11527,0.155301 -0.100809,0.325345 -0.235961,0.375101 -0.135152,0.04976 -0.447581,-0.261066 -0.410319,-0.426932 0.02522,-0.112244 0.225686,-0.463062 0.477879,-0.604094 0.245382,-0.137219 0.592997,-0.169564 0.693825,-0.202517 0.357577,-0.116908 0.730976,0.249886 0.897455,0.691215 z"
             sodipodi:nodetypes="sssssszssss" />
          <path
             style="fill:#917c6f;fill-opacity:1;stroke:#000000;stroke-width:0.150929;stroke-linecap:butt;stroke-linejoin:miter;stroke-miterlimit:4;stroke-dasharray:none;stroke-opacity:1"
             d="m 56.393931,15.688353 0.0979,-0.551587 v 0"
             id="path1529-9-7-5" />
        </g>
        <path
           style="fill:#917c6f;fill-opacity:1;stroke:#000000;stroke-width:0.065;stroke-linecap:butt;stroke-linejoin:miter;stroke-miterlimit:4;stroke-dasharray:none;stroke-opacity:1"
           d="m 56.329032,38.173566 c 0.141829,-0.317303 0.158877,-0.695862 0.134875,-1.094573"
           id="path1968"
           sodipodi:nodetypes="cc" />
      </g>
      <g
         id="g2015"
         transform="matrix(2.6202908,0,0,2.6202908,119.44127,28.606148)"
         style="fill:#917c6f;fill-opacity:1">
        <g
           id="g1742-7-1-1"
           transform="matrix(-0.99470109,0.10280927,0.10280927,0.99470109,98.842653,17.143715)"
           style="fill:#917c6f;fill-opacity:1">
          <path
             id="path839-9-65-0-6-1-7"
             style="fill:#917c6f;fill-opacity:1;stroke:#000000;stroke-width:0.208387;stroke-linecap:square;stroke-miterlimit:4;stroke-dasharray:none;stroke-opacity:1;paint-order:markers stroke fill"
             d="m 56.926226,14.398792 c 0.147287,0.390464 -0.02387,0.756312 -0.653025,1.311119 -0.129738,0.114408 -0.282738,0.0062 -0.420859,-0.06238 -0.121133,-0.06019 -0.05204,-0.222338 -0.0301,-0.432016 0.01259,-0.120307 0.0829,-0.465616 0.01928,-0.506448 -0.07347,-0.04715 -0.247344,-0.265423 -0.338176,-0.143043 -0.11527,0.155301 -0.100809,0.325345 -0.235961,0.375101 -0.135152,0.04976 -0.447581,-0.261066 -0.410319,-0.426932 0.02522,-0.112244 0.225686,-0.463062 0.477879,-0.604094 0.245382,-0.137219 0.592997,-0.169564 0.693825,-0.202517 0.357577,-0.116908 0.730976,0.249886 0.897455,0.691215 z"
             sodipodi:nodetypes="sssssszssss" />
          <path
             style="fill:#917c6f;fill-opacity:1;stroke:#000000;stroke-width:0.150929;stroke-linecap:butt;stroke-linejoin:miter;stroke-miterlimit:4;stroke-dasharray:none;stroke-opacity:1"
             d="m 56.393931,15.688353 0.0979,-0.551587 v 0"
             id="path1529-9-7-5-5" />
        </g>
        <path
           style="fill:#917c6f;fill-opacity:1;stroke:#000000;stroke-width:0.0649999;stroke-linecap:butt;stroke-linejoin:miter;stroke-miterlimit:4;stroke-dasharray:none;stroke-opacity:1"
           d="M 44.897117,37.706046 C 44.755288,37.388743 44.73824,37.010184 44.762242,36.611473"
           id="path1968-9"
           sodipodi:nodetypes="cc" />
      </g>
      <g
         id="g889"
         transform="translate(-0.30941937)">
        <path
           id="rect892-5-0-2-3-2-6-5-6-7"
           style="fill:#917c6f;fill-opacity:1;stroke:#000000;stroke-width:0.680263;stroke-linecap:square;stroke-miterlimit:4;stroke-dasharray:none;stroke-opacity:1;paint-order:markers stroke fill"
           d="m 247.38179,143.90242 c 0,0 2.1186,-4.6769 3.57435,-6.34147 1.45575,-1.66457 3.0017,1.6342 2.61379,3.82234 -0.38787,2.18815 -3.59486,4.62436 -5.77534,3.85046 -0.43785,-0.15541 -0.4128,-1.33133 -0.4128,-1.33133 z"
           sodipodi:nodetypes="czzsc" />
        <path
           id="path2040-2-0"
           style="fill:#917c6f;fill-opacity:1;stroke:#000000;stroke-width:0.694372;stroke-linecap:square;stroke-miterlimit:4;stroke-dasharray:none;stroke-opacity:1;paint-order:markers stroke fill"
           d="m 249.88633,143.23338 c 0,1.07067 -0.29678,1.93861 -1.54473,1.93861 -1.24795,0 -1.37603,-0.97719 -1.37603,-2.04785 0,-1.07067 0.12808,-1.82937 1.37603,-1.82937 1.24795,0 1.54473,0.86795 1.54473,1.93861 z"
           sodipodi:nodetypes="sssss" />
        <path
           id="rect892-5-0-2-3-2-6-5-3-6"
           style="fill:#917c6f;fill-opacity:1;stroke:#000000;stroke-width:0.694372;stroke-linecap:square;stroke-miterlimit:4;stroke-dasharray:none;stroke-opacity:1;paint-order:markers stroke fill"
           d="m 243.00377,143.79909 c 0,0 -2.21155,-4.66818 -3.73118,-6.32966 -1.51962,-1.66146 -3.13341,1.63116 -2.72848,3.81523 0.40488,2.18407 3.78587,4.64894 6.02875,3.84329 0.43824,-0.15742 0.43091,-1.32886 0.43091,-1.32886 z"
           sodipodi:nodetypes="czzsc" />
        <path
           id="path2040-0"
           style="fill:#917c6f;fill-opacity:1;stroke:#000000;stroke-width:0.694377;stroke-linecap:square;stroke-miterlimit:4;stroke-dasharray:none;stroke-opacity:1;paint-order:markers stroke fill"
           d="m 243.66883,143.19843 c 0,1.07068 -0.29678,1.93862 -1.54473,1.93862 -1.24794,0 -1.37602,-0.9772 -1.37602,-2.04786 0,-1.07067 0.12807,-1.82937 1.37602,-1.82937 1.24795,0 1.54473,0.86795 1.54473,1.93861 z"
           sodipodi:nodetypes="sssss" />
        <path
           id="rect875-9-1-1"
           style="fill:#87cdde;fill-opacity:1;stroke:#000000;stroke-width:0.604663;stroke-linecap:square;stroke-miterlimit:4;stroke-dasharray:none;stroke-opacity:1;paint-order:markers stroke fill"
           d="m 243.04767,141.18265 c 0,0 0.50157,-2.28118 0.69928,-3.04705 0.1978,-0.76584 0.21822,-1.55459 0.21822,-1.55459 -0.46557,-0.84654 -0.85361,-1.79116 -1.88843,-1.91764 -1.08356,0.0945 -1.70877,1.25998 -1.93117,1.75876 -0.22239,0.49879 0.0262,0.92531 0.10161,1.71347 0.075,0.78816 0.87088,3.04705 0.87088,3.04705 0.4837,0.31767 1.39844,0.43616 1.9296,0 z"
           sodipodi:nodetypes="czcczzccc" />
        <path
           id="rect875-9-1-1-5"
           style="fill:#2c89a0;fill-opacity:1;stroke:#000000;stroke-width:0.694377;stroke-linecap:square;stroke-miterlimit:4;stroke-dasharray:none;stroke-opacity:1;paint-order:markers stroke fill"
           d="m 243.41281,134.71132 c 0,0 0.6429,-2.92393 0.89632,-3.9056 0.25354,-0.98163 0.2797,-1.99263 0.2797,-1.99263 -0.59675,-1.08505 -1.09411,-2.29584 -2.42052,-2.45796 -1.38885,0.12116 -2.19024,1.61501 -2.4753,2.25434 -0.28504,0.63932 0.0336,1.18601 0.13026,2.19625 0.096,1.01024 1.11625,3.9056 1.11625,3.9056 0.62,0.40718 1.79248,0.55906 2.4733,0 z"
           sodipodi:nodetypes="czcczzccc" />
        <path
           id="rect875-9-1-1-1"
           style="fill:#87cdde;fill-opacity:1;stroke:#000000;stroke-width:0.604663;stroke-linecap:square;stroke-miterlimit:4;stroke-dasharray:none;stroke-opacity:1;paint-order:markers stroke fill"
           d="m 247.50463,141.18265 c 0,0 -0.50157,-2.28118 -0.69927,-3.04705 -0.19781,-0.76584 -0.21822,-1.55459 -0.21822,-1.55459 0.46557,-0.84654 0.8536,-1.79116 1.88842,-1.91764 1.08356,0.0945 1.70877,1.25998 1.93118,1.75876 0.22239,0.49879 -0.0263,0.92531 -0.10162,1.71347 -0.0749,0.78816 -0.87088,3.04705 -0.87088,3.04705 -0.4837,0.31767 -1.39844,0.43616 -1.92959,0 z"
           sodipodi:nodetypes="czcczzccc" />
        <path
           id="rect875-9-1-1-5-9"
           style="fill:#2c89a0;fill-opacity:1;stroke:#000000;stroke-width:0.694377;stroke-linecap:square;stroke-miterlimit:4;stroke-dasharray:none;stroke-opacity:1;paint-order:markers stroke fill"
           d="m 249.79504,134.71132 c 0,0 0.6429,-2.92393 0.89632,-3.9056 0.25354,-0.98163 0.27969,-1.99263 0.27969,-1.99263 -0.59674,-1.08505 -1.0941,-2.29584 -2.42051,-2.45796 -1.38886,0.12116 -2.19024,1.61501 -2.4753,2.25434 -0.28505,0.63932 0.0336,1.18601 0.13025,2.19625 0.0961,1.01024 1.11626,3.9056 1.11626,3.9056 0.62,0.40718 1.79248,0.55906 2.4733,0 z"
           sodipodi:nodetypes="czcczzccc" />
      </g>
      <path
         id="rect856-1-3-8-6-8-8"
         style="fill:#87cdde;fill-opacity:1;stroke:#000000;stroke-width:0.591205;stroke-linecap:square;stroke-miterlimit:4;stroke-dasharray:none;stroke-opacity:1;paint-order:markers stroke fill"
         d="m 251.01523,124.92985 c -0.0457,0.88703 -0.25857,1.94165 -0.96095,2.4853 -2.0516,0.9784 -3.32101,0.39307 -4.98924,0.39303 -1.6671,-4e-5 -3.66919,0.62955 -4.98584,-0.39303 -0.69131,-0.53691 -0.80724,-1.61093 -0.84788,-2.4853 -0.0562,-1.208 0.74416,-2.32259 0.84788,-3.52744 0.0673,-0.78141 -0.1039,-1.56516 -0.15085,-2.34806 -0.16878,-2.8137 -0.47047,-8.4432 -0.47047,-8.4432 l 4.31278,-1.24757 h 2.18233 l 4.31277,1.24757 c 0,0 -0.0199,5.6298 -0.10227,8.4432 -0.0231,0.7832 -0.19503,1.56925 -0.10921,2.34806 0.13347,1.21134 1.02367,2.31039 0.96095,3.52744 z"
         sodipodi:nodetypes="acaaaaaccccaaa" />
      <path
         id="rect892-5-3-9-1-7-2-7-1-3-9"
         style="fill:#87cdde;fill-opacity:1;stroke:#000000;stroke-width:0.546481;stroke-linecap:square;stroke-miterlimit:4;stroke-dasharray:none;stroke-opacity:1;paint-order:markers stroke fill"
         d="m 235.0273,118.21091 -0.0356,5.87121 c 1.07821,0.89235 1.41676,2.00519 2.72797,0.004 l 0.76982,-6.02384 z"
         sodipodi:nodetypes="ccccc" />
      <path
         id="rect892-5-3-9-1-7-2-77-6-84"
         style="fill:#2c89a0;fill-opacity:1;stroke:#000000;stroke-width:0.547352;stroke-linecap:square;stroke-miterlimit:4;stroke-dasharray:none;stroke-opacity:1;paint-order:markers stroke fill"
         d="m 235.31598,118.19481 c 0.74825,1.07185 1.48622,2.188 2.62714,1.56514 l 2.66966,-6.04497 c 0.59981,-1.69384 1.06061,-3.23867 -0.34346,-3.32457 -1.40408,-0.0859 -2.40103,0.39337 -3.03209,1.871 z"
         sodipodi:nodetypes="cccscc" />
      <path
         id="rect892-5-3-9-1-7-2-7-1-3-4-0"
         style="fill:#87cdde;fill-opacity:1;stroke:#000000;stroke-width:0.546481;stroke-linecap:square;stroke-miterlimit:4;stroke-dasharray:none;stroke-opacity:1;paint-order:markers stroke fill"
         d="m 254.9299,118.23701 0.0356,5.87121 c -1.07822,0.89234 -1.41676,2.00518 -2.72797,0.004 l -0.76982,-6.02369 z"
         sodipodi:nodetypes="ccccc" />
      <path
         id="rect892-5-3-9-1-7-2-77-6-8-4"
         style="fill:#2c89a0;fill-opacity:1;stroke:#000000;stroke-width:0.547352;stroke-linecap:square;stroke-miterlimit:4;stroke-dasharray:none;stroke-opacity:1;paint-order:markers stroke fill"
         d="m 254.64121,118.22091 c -0.74825,1.07185 -1.48621,2.18799 -2.62714,1.56515 l -2.66965,-6.04499 c -0.59981,-1.69383 -1.06062,-3.23866 0.34347,-3.32456 1.40406,-0.0859 2.40103,0.39336 3.03208,1.871 z"
         sodipodi:nodetypes="cccscc" />
      <path
         id="path833-8"
         style="fill:#87cdde;fill-opacity:1;stroke:#000000;stroke-width:0.694371;stroke-linecap:square;stroke-miterlimit:4;stroke-dasharray:none;stroke-opacity:1;paint-order:markers stroke fill"
         d="m 254.64709,103.09654 c 0,4.72594 -4.47121,7.17211 -9.98673,7.1721 -5.51551,10e-6 -9.98672,-2.44616 -9.98672,-7.1721 0,-2.29575 0.18182,-5.633339 1.8992,-7.506297 1.81796,-1.982642 5.25744,-2.423682 8.08752,-2.435728 2.91254,-0.01234 6.52838,0.448347 8.34683,2.435728 1.71259,1.871701 1.6399,5.214157 1.6399,7.506297 z"
         sodipodi:nodetypes="ssssass" />
    </g>
  </g>
</svg>
