<?xml version="1.0" encoding="UTF-8" standalone="no"?>
<svg
   xmlns:dc="http://purl.org/dc/elements/1.1/"
   xmlns:cc="http://creativecommons.org/ns#"
   xmlns:rdf="http://www.w3.org/1999/02/22-rdf-syntax-ns#"
   xmlns:svg="http://www.w3.org/2000/svg"
   xmlns="http://www.w3.org/2000/svg"
   xmlns:sodipodi="http://sodipodi.sourceforge.net/DTD/sodipodi-0.dtd"
   xmlns:inkscape="http://www.inkscape.org/namespaces/inkscape"
   width="43.051487mm"
   height="94.250214mm"
   viewBox="0 0 43.051489 94.250223"
   version="1.1"
   id="svg8"
   inkscape:version="1.0.1 (0767f8302a, 2020-10-17)"
   sodipodi:docname="pick_up_back3.svg"
   inkscape:export-filename="/home/karine/escoria-assets-testing/ressources/take_back/take_back_test.png"
   inkscape:export-xdpi="96"
   inkscape:export-ydpi="96">
  <defs
     id="defs2" />
  <sodipodi:namedview
     id="base"
     pagecolor="#ffffff"
     bordercolor="#666666"
     borderopacity="1.0"
     inkscape:pageopacity="0.0"
     inkscape:pageshadow="2"
     inkscape:zoom="1.5540701"
     inkscape:cx="121.41751"
     inkscape:cy="185.57494"
     inkscape:document-units="mm"
     inkscape:current-layer="layer1"
     inkscape:document-rotation="0"
     showgrid="false"
     inkscape:snap-grids="false"
     inkscape:snap-nodes="true"
     inkscape:snap-global="true"
     inkscape:snap-bbox="false"
     inkscape:window-width="1848"
     inkscape:window-height="1016"
     inkscape:window-x="72"
     inkscape:window-y="27"
     inkscape:window-maximized="1"
     fit-margin-top="0"
     fit-margin-left="0"
     fit-margin-right="0"
     fit-margin-bottom="0"
     showguides="true"
     inkscape:guide-bbox="true">
    <inkscape:grid
       type="xygrid"
       id="grid837"
       originx="-170.3759"
       originy="-92.807075" />
    <sodipodi:guide
       position="-95.376637,152.56267"
       orientation="1,0"
       id="guide979" />
    <sodipodi:guide
       position="-35.342477,86.747446"
       orientation="1,0"
       id="guide981" />
    <sodipodi:guide
       position="24.888205,143.30661"
       orientation="1,0"
       id="guide983" />
    <sodipodi:guide
       position="84.754936,148.70927"
       orientation="1,0"
       id="guide985" />
    <sodipodi:guide
       position="-68.289729,14.513826"
       orientation="1,0"
       id="guide1102" />
    <sodipodi:guide
       position="-7.515996,-30.348237"
       orientation="1,0"
       id="guide1104" />
    <sodipodi:guide
       position="52.815735,-2.060828"
       orientation="1,0"
       id="guide1108" />
  </sodipodi:namedview>
  <metadata
     id="metadata5">
    <rdf:RDF>
      <cc:Work
         rdf:about="">
        <dc:format>image/svg+xml</dc:format>
        <dc:type
           rdf:resource="http://purl.org/dc/dcmitype/StillImage" />
        <dc:title></dc:title>
      </cc:Work>
    </rdf:RDF>
  </metadata>
  <g
     inkscape:label="Calque 1"
     inkscape:groupmode="layer"
     id="layer1"
     transform="translate(-170.37588,-92.807008)">
    <g
       id="g1584">
      <path
         id="rect892-5-0-2-3-2-6-5-6-7-2"
         style="fill:#917c6f;fill-opacity:1;stroke:#000000;stroke-width:1.21162;stroke-linecap:square;stroke-miterlimit:4;stroke-dasharray:none;stroke-opacity:1;paint-order:markers stroke fill"
         d="m 197.07078,183.81334 c 0,0 3.77344,-8.33004 6.36629,-11.29482 2.59284,-2.96477 5.34635,2.91068 4.65545,6.80799 -0.69085,3.89732 -6.40284,8.23648 -10.28649,6.85808 -0.77987,-0.27679 -0.73525,-2.37125 -0.73525,-2.37125 z"
         sodipodi:nodetypes="czzsc" />
      <path
         id="path2040-2-0-9"
         style="fill:#917c6f;fill-opacity:1;stroke:#000000;stroke-width:1.23675;stroke-linecap:square;stroke-miterlimit:4;stroke-dasharray:none;stroke-opacity:1;paint-order:markers stroke fill"
         d="m 201.53162,182.62172 c 0,1.90697 -0.5286,3.45287 -2.75132,3.45287 -2.22273,0 -2.45087,-1.74048 -2.45087,-3.64744 0,-1.90697 0.22813,-3.2583 2.45087,-3.2583 2.22272,0 2.75132,1.5459 2.75132,3.45287 z"
         sodipodi:nodetypes="sssss" />
      <path
         id="rect892-5-0-2-3-2-6-5-3-6-3"
         style="fill:#917c6f;fill-opacity:1;stroke:#000000;stroke-width:1.23675;stroke-linecap:square;stroke-miterlimit:4;stroke-dasharray:none;stroke-opacity:1;paint-order:markers stroke fill"
         d="m 189.27305,183.62932 c 0,0 -3.939,-8.31454 -6.64562,-11.2738 -2.70662,-2.95924 -5.58095,2.90527 -4.85972,6.79531 0.72114,3.89007 6.74302,8.28027 10.73785,6.84532 0.78055,-0.28038 0.76749,-2.36683 0.76749,-2.36683 z"
         sodipodi:nodetypes="czzsc" />
      <path
         id="path2040-0-1"
         style="fill:#917c6f;fill-opacity:1;stroke:#000000;stroke-width:1.23676;stroke-linecap:square;stroke-miterlimit:4;stroke-dasharray:none;stroke-opacity:1;paint-order:markers stroke fill"
         d="m 190.4576,182.55948 c 0,1.90698 -0.5286,3.45287 -2.75133,3.45287 -2.22272,0 -2.45085,-1.74048 -2.45085,-3.64744 0,-1.90698 0.22812,-3.2583 2.45085,-3.2583 2.22273,0 2.75133,1.54591 2.75133,3.45287 z"
         sodipodi:nodetypes="sssss" />
      <g
         id="g1742-7-1-3-7-4"
         transform="matrix(4.6422915,0.4798131,-0.4798131,4.6422915,-44.535497,58.25888)"
         style="fill:#917c6f;fill-opacity:1">
        <path
           id="path839-9-65-0-6-1-5-7"
           style="fill:#917c6f;fill-opacity:1;stroke:#000000;stroke-width:0.208387;stroke-linecap:square;stroke-miterlimit:4;stroke-dasharray:none;stroke-opacity:1;paint-order:markers stroke fill"
           d="m 56.926226,14.398792 c 0.147287,0.390464 -0.02387,0.756312 -0.653025,1.311119 -0.129738,0.114408 -0.282738,0.0062 -0.420859,-0.06238 -0.121133,-0.06019 -0.05204,-0.222338 -0.0301,-0.432016 0.01259,-0.120307 0.0829,-0.465616 0.01928,-0.506448 -0.07347,-0.04715 -0.247344,-0.265423 -0.338176,-0.143043 -0.11527,0.155301 -0.100809,0.325345 -0.235961,0.375101 -0.135152,0.04976 -0.447581,-0.261066 -0.410319,-0.426932 0.02522,-0.112244 0.225686,-0.463062 0.477879,-0.604094 0.245382,-0.137219 0.592997,-0.169564 0.693825,-0.202517 0.357577,-0.116908 0.730976,0.249886 0.897455,0.691215 z"
           sodipodi:nodetypes="sssssszssss" />
        <path
           style="fill:#917c6f;fill-opacity:1;stroke:#000000;stroke-width:0.150929;stroke-linecap:butt;stroke-linejoin:miter;stroke-miterlimit:4;stroke-dasharray:none;stroke-opacity:1"
           d="m 56.393931,15.688353 0.0979,-0.551587 v 0"
           id="path1529-9-7-5-3-8" />
      </g>
      <path
         style="fill:#917c6f;fill-opacity:1;stroke:#000000;stroke-width:0.303357;stroke-linecap:butt;stroke-linejoin:miter;stroke-miterlimit:4;stroke-dasharray:none;stroke-opacity:1"
         d="m 207.37245,153.79567 c 0.66192,-1.48086 0.74148,-3.24759 0.62947,-5.10839"
         id="path1968-5-4"
         sodipodi:nodetypes="cc" />
      <path
         id="rect892-5-3-9-1-7-2-7-1-3-4-5"
         style="fill:#87cdde;fill-opacity:1;stroke:#000000;stroke-width:0.973339;stroke-linecap:square;stroke-miterlimit:4;stroke-dasharray:none;stroke-opacity:1;paint-order:markers stroke fill"
         d="m 210.86242,138.22704 0.0634,10.45727 c -1.92042,1.58936 -2.5234,3.57145 -4.85878,0.007 l -1.37113,-10.72912 z"
         sodipodi:nodetypes="ccccc" />
      <g
         id="g1597"
         transform="matrix(0.67748556,-0.44557738,0.44557738,0.67748556,-1.736472,-91.791621)">
        <path
           id="path839-9-65-0-6-0-7"
           style="fill:#917c6f;fill-opacity:1;stroke:#000000;stroke-width:1.19937;stroke-linecap:square;stroke-miterlimit:4;stroke-dasharray:none;stroke-opacity:1;paint-order:markers stroke fill"
           d="m 15.992038,365.22479 c -1.418139,0.98296 -2.849211,1.45274 -3.301182,3.12448 -0.404535,1.49628 0.266049,2.31079 1.204298,2.20473 1.919501,-0.21698 5.511475,-2.93359 7.177281,-2.06895 0.545553,0.28317 0.640006,0.41509 1.085569,1.49061 0.426036,1.02839 -0.668872,2.64678 -0.201531,3.33139 0.467333,0.68462 2.969901,0.27108 3.349188,-0.63085 0.256605,-0.61038 0.488625,-2.9243 -0.222507,-4.42764 -0.691933,-1.46272 -1.63392,-3.64342 -1.996488,-4.13463 -2.569542,-2.38602 -4.95983,0.094 -7.094628,1.11086 z"
           sodipodi:nodetypes="csssszsscc" />
        <g
           id="g1586">
          <path
             style="fill:none;stroke:#000000;stroke-width:0.565;stroke-linecap:butt;stroke-linejoin:miter;stroke-miterlimit:4;stroke-dasharray:none;stroke-opacity:1;paint-order:stroke markers fill"
             d="m 21.090117,364.54728 c -0.597764,1.07886 -1.018489,2.73115 0.09785,4.34226"
             id="path972"
             sodipodi:nodetypes="cc" />
          <path
             style="fill:none;stroke:#000000;stroke-width:0.564999;stroke-linecap:butt;stroke-linejoin:miter;stroke-miterlimit:4;stroke-dasharray:none;stroke-opacity:1;paint-order:stroke markers fill"
             d="m 23.712058,368.12645 c -1.04315,-0.24429 -1.783877,1.22268 -1.829627,2.56908"
             id="path972-4"
             sodipodi:nodetypes="cc" />
          <path
             style="fill:none;stroke:#000000;stroke-width:0.565;stroke-linecap:butt;stroke-linejoin:miter;stroke-miterlimit:4;stroke-dasharray:none;stroke-opacity:1"
             d="m 12.671124,370.18564 c 2.280147,-0.13347 3.428217,-1.43678 4.661245,-2.65229"
             id="path1578"
             sodipodi:nodetypes="cc" />
          <path
             style="fill:none;stroke:#000000;stroke-width:0.565;stroke-linecap:butt;stroke-linejoin:miter;stroke-miterlimit:4;stroke-dasharray:none;stroke-opacity:1"
             d="m 18.323966,369.00137 c 0,0 -1.917604,-2.21033 -1.73518,-3.0838"
             id="path1580" />
        </g>
      </g>
      <path
         id="rect892-5-3-9-1-7-2-7-1-3-4-6-93-0"
         style="fill:#87cdde;fill-opacity:1;stroke:#000000;stroke-width:0.924614;stroke-linecap:square;stroke-miterlimit:4;stroke-dasharray:none;stroke-opacity:1;paint-order:markers stroke fill"
         d="m 173.37358,136.7061 0.7189,9.53607 c 2.01968,1.45612 2.76468,3.26576 4.80987,0.0237 l 0.55517,-9.77939 c -1.75942,-1.76531 -3.81147,-1.52733 -6.08394,0.21965 z"
         sodipodi:nodetypes="ccccc" />
      <path
         id="rect875-9-1-1-6"
         style="fill:#87cdde;fill-opacity:1;stroke:#000000;stroke-width:1.07697;stroke-linecap:square;stroke-miterlimit:4;stroke-dasharray:none;stroke-opacity:1;paint-order:markers stroke fill"
         d="m 189.35125,178.96915 c 0,0 0.89335,-4.06302 1.24549,-5.42711 0.35231,-1.36403 0.38867,-2.7689 0.38867,-2.7689 -0.82923,-1.50777 -1.52036,-3.19024 -3.36349,-3.41552 -1.92993,0.16834 -3.0435,2.24417 -3.43961,3.13256 -0.3961,0.88838 0.0467,1.64807 0.18098,3.05186 0.13348,1.40379 1.55112,5.42711 1.55112,5.42711 0.86153,0.56581 2.49078,0.77686 3.43683,0 z"
         sodipodi:nodetypes="czcczzccc" />
      <path
         id="rect875-9-1-1-5-1"
         style="fill:#2c89a0;fill-opacity:1;stroke:#000000;stroke-width:1.23676;stroke-linecap:square;stroke-miterlimit:4;stroke-dasharray:none;stroke-opacity:1;paint-order:markers stroke fill"
         d="m 190.00162,167.44303 c 0,0 1.14506,-5.20783 1.59642,-6.95628 0.45158,-1.74839 0.49818,-3.54908 0.49818,-3.54908 -1.06287,-1.93261 -1.94873,-4.08915 -4.3112,-4.3779 -2.4737,0.2158 -3.90105,2.87651 -4.40877,4.01521 -0.5077,1.1387 0.0599,2.11243 0.232,3.91177 0.17108,1.79933 1.98817,6.95628 1.98817,6.95628 1.10428,0.72523 3.19259,0.99575 4.4052,0 z"
         sodipodi:nodetypes="czcczzccc" />
      <path
         id="rect875-9-1-1-1-55"
         style="fill:#87cdde;fill-opacity:1;stroke:#000000;stroke-width:1.07697;stroke-linecap:square;stroke-miterlimit:4;stroke-dasharray:none;stroke-opacity:1;paint-order:markers stroke fill"
         d="m 197.28959,178.96915 c 0,0 -0.89335,-4.06302 -1.24548,-5.42711 -0.35232,-1.36403 -0.38867,-2.7689 -0.38867,-2.7689 0.82923,-1.50777 1.52035,-3.19024 3.36348,-3.41552 1.92993,0.16834 3.0435,2.24417 3.43963,3.13256 0.39609,0.88838 -0.0468,1.64807 -0.18099,3.05186 -0.13348,1.40379 -1.55113,5.42711 -1.55113,5.42711 -0.86152,0.56581 -2.49078,0.77686 -3.43682,0 z"
         sodipodi:nodetypes="czcczzccc" />
      <path
         id="rect875-9-1-1-5-9-4"
         style="fill:#2c89a0;fill-opacity:1;stroke:#000000;stroke-width:1.23676;stroke-linecap:square;stroke-miterlimit:4;stroke-dasharray:none;stroke-opacity:1;paint-order:markers stroke fill"
         d="m 201.36905,167.44303 c 0,0 1.14507,-5.20783 1.59643,-6.95628 0.45159,-1.74839 0.49817,-3.54908 0.49817,-3.54908 -1.06287,-1.93261 -1.94872,-4.08915 -4.31119,-4.3779 -2.4737,0.2158 -3.90106,2.87651 -4.40877,4.01521 -0.5077,1.1387 0.0599,2.11243 0.23199,3.91177 0.17109,1.79933 1.98817,6.95628 1.98817,6.95628 1.10429,0.72523 3.1926,0.99575 4.40521,0 z"
         sodipodi:nodetypes="czcczzccc" />
      <path
         id="rect856-1-3-8-6-8-03"
         style="fill:#87cdde;fill-opacity:1;stroke:#000000;stroke-width:1.053;stroke-linecap:square;stroke-miterlimit:4;stroke-dasharray:none;stroke-opacity:1;paint-order:markers stroke fill"
         d="m 203.81427,149.7638 c -0.0814,1.57989 -0.46054,3.45829 -1.71157,4.42658 -3.65408,1.74263 -5.91503,0.70013 -8.88632,0.70004 -2.96927,-8e-5 -6.53519,1.1213 -8.88028,-0.70004 -1.23128,-0.95629 -1.43777,-2.86922 -1.51015,-4.42658 -0.1,-2.15158 1.32543,-4.13679 1.51015,-6.28275 0.11981,-1.39178 -0.18503,-2.78772 -0.26867,-4.18215 -0.3006,-5.01151 -0.83796,-15.03826 -0.83796,-15.03826 l 7.6815,-2.22205 h 3.88693 l 7.68148,2.22205 c 0,0 -0.0355,10.0273 -0.18216,15.03826 -0.0411,1.39496 -0.34736,2.79499 -0.19452,4.18215 0.23774,2.15751 1.82327,4.11505 1.71157,6.28275 z"
         sodipodi:nodetypes="acaaaaaccccaaa" />
      <path
         id="rect892-5-3-9-1-7-2-77-6-8-2-90-9"
         style="fill:#2c89a0;fill-opacity:1;stroke:#000000;stroke-width:0.969893;stroke-linecap:square;stroke-miterlimit:4;stroke-dasharray:none;stroke-opacity:1;paint-order:markers stroke fill"
         d="m 173.29254,136.83239 c 1.23863,1.81776 3.73771,1.56259 6.0027,0.60513 l 4.77738,-7.67405 c 1.41856,-2.76079 2.54895,-5.2841 -0.0964,-5.51409 -2.64526,-0.23 -4.61363,0.49928 -6.05534,2.90089 z"
         sodipodi:nodetypes="cccscc" />
      <path
         id="rect892-5-3-9-1-7-2-77-6-8-7"
         style="fill:#2c89a0;fill-opacity:1;stroke:#000000;stroke-width:0.974896;stroke-linecap:square;stroke-miterlimit:4;stroke-dasharray:none;stroke-opacity:1;paint-order:markers stroke fill"
         d="m 210.34825,138.19836 c -1.33269,1.90908 -2.64711,3.89707 -4.6792,2.7877 l -4.75491,-10.76677 c -1.06833,-3.0169 -1.88905,-5.7684 0.61174,-5.9214 2.50078,-0.15301 4.27647,0.70062 5.40045,3.33245 z"
         sodipodi:nodetypes="cccscc" />
      <path
         id="path833-65"
         style="fill:#87cdde;fill-opacity:1;stroke:#000000;stroke-width:1.23676;stroke-linecap:square;stroke-miterlimit:4;stroke-dasharray:none;stroke-opacity:1;paint-order:markers stroke fill"
         d="m 210.35867,111.13367 c 0,8.41741 -7.96366,12.77431 -17.78734,12.77431 -9.82366,0 -17.78737,-4.3569 -17.78737,-12.77431 0,-4.08897 0.32384,-10.03357 3.38269,-13.369509 3.23798,-3.5313 9.36402,-4.31684 14.40468,-4.338304 5.18753,-0.02206 11.62769,0.798571 14.86652,4.338304 3.0503,3.333699 2.92082,9.286969 2.92082,13.369509 z"
         sodipodi:nodetypes="ssssass" />
    </g>
  </g>
</svg>
