<?xml version="1.0" encoding="UTF-8" standalone="no"?>
<svg
   xmlns:dc="http://purl.org/dc/elements/1.1/"
   xmlns:cc="http://creativecommons.org/ns#"
   xmlns:rdf="http://www.w3.org/1999/02/22-rdf-syntax-ns#"
   xmlns:svg="http://www.w3.org/2000/svg"
   xmlns="http://www.w3.org/2000/svg"
   xmlns:sodipodi="http://sodipodi.sourceforge.net/DTD/sodipodi-0.dtd"
   xmlns:inkscape="http://www.inkscape.org/namespaces/inkscape"
   width="43.441315mm"
   height="94.250206mm"
   viewBox="0 0 43.441316 94.250216"
   version="1.1"
   id="svg8"
   inkscape:version="1.0.1 (0767f8302a, 2020-10-17)"
   sodipodi:docname="pick_up_back4.svg"
   inkscape:export-filename="/home/karine/escoria-assets-testing/ressources/take_back/take_back_test.png"
   inkscape:export-xdpi="96"
   inkscape:export-ydpi="96">
  <defs
     id="defs2" />
  <sodipodi:namedview
     id="base"
     pagecolor="#ffffff"
     bordercolor="#666666"
     borderopacity="1.0"
     inkscape:pageopacity="0.0"
     inkscape:pageshadow="2"
     inkscape:zoom="1.6221181"
     inkscape:cx="-44.728816"
     inkscape:cy="185.5749"
     inkscape:document-units="mm"
     inkscape:current-layer="layer1"
     inkscape:document-rotation="0"
     showgrid="false"
     inkscape:snap-grids="false"
     inkscape:snap-nodes="true"
     inkscape:snap-global="true"
     inkscape:snap-bbox="false"
     inkscape:window-width="1848"
     inkscape:window-height="1016"
     inkscape:window-x="72"
     inkscape:window-y="27"
     inkscape:window-maximized="1"
     fit-margin-top="0"
     fit-margin-left="0"
     fit-margin-right="0"
     fit-margin-bottom="0"
     showguides="true"
     inkscape:guide-bbox="true">
    <inkscape:grid
       type="xygrid"
       id="grid837"
       originx="-229.74265"
       originy="-92.807085" />
    <sodipodi:guide
       position="-154.7434,152.56267"
       orientation="1,0"
       id="guide979" />
    <sodipodi:guide
       position="-94.709243,86.747445"
       orientation="1,0"
       id="guide981" />
    <sodipodi:guide
       position="-34.478564,143.30661"
       orientation="1,0"
       id="guide983" />
    <sodipodi:guide
       position="25.388165,148.70927"
       orientation="1,0"
       id="guide985" />
    <sodipodi:guide
       position="-127.65649,14.513827"
       orientation="1,0"
       id="guide1102" />
    <sodipodi:guide
       position="-66.882764,-30.348235"
       orientation="1,0"
       id="guide1104" />
    <sodipodi:guide
       position="-6.5510342,-2.0608266"
       orientation="1,0"
       id="guide1108" />
  </sodipodi:namedview>
  <metadata
     id="metadata5">
    <rdf:RDF>
      <cc:Work
         rdf:about="">
        <dc:format>image/svg+xml</dc:format>
        <dc:type
           rdf:resource="http://purl.org/dc/dcmitype/StillImage" />
        <dc:title></dc:title>
      </cc:Work>
    </rdf:RDF>
  </metadata>
  <g
     inkscape:label="Calque 1"
     inkscape:groupmode="layer"
     id="layer1"
     transform="translate(-229.74265,-92.807017)">
    <g
       id="g1609">
      <g
         id="g1561"
         transform="matrix(0.8108797,0,0,0.8108797,243.62522,-256.95865)">
        <path
           id="path839-9-65-0-6-0"
           style="fill:#917c6f;fill-opacity:1;stroke:#000000;stroke-width:1.19937;stroke-linecap:square;stroke-miterlimit:4;stroke-dasharray:none;stroke-opacity:1;paint-order:markers stroke fill"
           d="m -14.43982,500.34893 c -0.95933,-1.43423 -5.05461,-5.27364 1.82495,-8.23045 0.91467,-0.39309 2.32513,-0.69901 3.19188,-0.50795 0.7602,0.16781 0.59967,1.16946 0.76856,2.37104 0.0969,0.68944 -0.57046,2.98718 -0.15838,3.12681 0.47587,0.16122 1.75036,1.13865 2.08758,0.32889 0.42795,-1.02759 0.11084,-1.95722 0.79653,-2.42296 0.68569,-0.46576 2.86267,0.83602 2.88509,1.81419 0.0151,0.66196 -0.61689,2.89996 -1.82942,4.03816 -1.17978,1.10745 -3.07631,1.77124 -3.59365,2.09543 -3.26512,1.27853 -4.35943,-0.88477 -5.97314,-2.61316 z"
           sodipodi:nodetypes="cssssszsscc" />
        <path
           id="path993"
           style="fill:#917c6f;stroke:#000000;stroke-width:0.906;stroke-linecap:butt;stroke-miterlimit:4;stroke-dasharray:none;paint-order:markers stroke fill"
           d="m -11.97171,493.2493 c 0.32481,0.71095 0.93408,2.86952 -0.0774,3.27463 -1.01559,0.40676 -1.3756,-0.37034 -2.27607,-2.37374 -0.88426,-2.69398 1.32343,-4.72628 2.66837,-2.19698 z"
           sodipodi:nodetypes="csccc" />
        <ellipse
           style="fill:#917c6f;fill-opacity:1;stroke:#000000;stroke-width:0.905999;stroke-linecap:butt;stroke-miterlimit:4;stroke-dasharray:none;paint-order:markers stroke fill"
           id="path996"
           cx="-10.222919"
           cy="492.84332"
           rx="1.4042234"
           ry="1.5364579" />
      </g>
      <path
         id="rect892-5-0-2-3-2-6-5-6-7-2-9"
         style="fill:#917c6f;fill-opacity:1;stroke:#000000;stroke-width:1.21162;stroke-linecap:square;stroke-miterlimit:4;stroke-dasharray:none;stroke-opacity:1;paint-order:markers stroke fill"
         d="m 256.82739,183.81334 c 0,0 3.77345,-8.33004 6.36629,-11.29482 2.59285,-2.96477 5.34635,2.91068 4.65545,6.80799 -0.69085,3.89733 -6.40284,8.23648 -10.28649,6.85808 -0.77987,-0.27679 -0.73525,-2.37125 -0.73525,-2.37125 z"
         sodipodi:nodetypes="czzsc" />
      <path
         id="path2040-2-0-9-3"
         style="fill:#917c6f;fill-opacity:1;stroke:#000000;stroke-width:1.23675;stroke-linecap:square;stroke-miterlimit:4;stroke-dasharray:none;stroke-opacity:1;paint-order:markers stroke fill"
         d="m 261.28823,182.62172 c 0,1.90697 -0.5286,3.45287 -2.75132,3.45287 -2.22273,0 -2.45087,-1.74048 -2.45087,-3.64744 0,-1.90697 0.22813,-3.2583 2.45087,-3.2583 2.22272,0 2.75132,1.5459 2.75132,3.45287 z"
         sodipodi:nodetypes="sssss" />
      <path
         id="rect892-5-0-2-3-2-6-5-3-6-3-7"
         style="fill:#917c6f;fill-opacity:1;stroke:#000000;stroke-width:1.23675;stroke-linecap:square;stroke-miterlimit:4;stroke-dasharray:none;stroke-opacity:1;paint-order:markers stroke fill"
         d="m 249.02966,183.62932 c 0,0 -3.939,-8.31454 -6.64562,-11.2738 -2.70662,-2.95924 -5.58095,2.90527 -4.85972,6.79532 0.72114,3.89006 6.74303,8.28026 10.73785,6.84531 0.78055,-0.28038 0.76749,-2.36683 0.76749,-2.36683 z"
         sodipodi:nodetypes="czzsc" />
      <path
         id="path2040-0-1-4"
         style="fill:#917c6f;fill-opacity:1;stroke:#000000;stroke-width:1.23676;stroke-linecap:square;stroke-miterlimit:4;stroke-dasharray:none;stroke-opacity:1;paint-order:markers stroke fill"
         d="m 250.21421,182.55948 c 0,1.90698 -0.5286,3.45287 -2.75133,3.45287 -2.22272,0 -2.45085,-1.74048 -2.45085,-3.64744 0,-1.90698 0.22812,-3.2583 2.45085,-3.2583 2.22273,0 2.75133,1.54591 2.75133,3.45287 z"
         sodipodi:nodetypes="sssss" />
      <g
         id="g2021-6-9-5"
         style="fill:#917c6f;fill-opacity:1"
         transform="matrix(4.6670216,0,0,4.6670216,4.240241,-24.361182)">
        <g
           id="g1742-7-1-3-7-4-2"
           transform="rotate(5.900964,-170.55953,31.676537)"
           style="fill:#917c6f;fill-opacity:1">
          <path
             id="path839-9-65-0-6-1-5-7-5"
             style="fill:#917c6f;fill-opacity:1;stroke:#000000;stroke-width:0.208387;stroke-linecap:square;stroke-miterlimit:4;stroke-dasharray:none;stroke-opacity:1;paint-order:markers stroke fill"
             d="m 56.926226,14.398792 c 0.147287,0.390464 -0.02387,0.756312 -0.653025,1.311119 -0.129738,0.114408 -0.282738,0.0062 -0.420859,-0.06238 -0.121133,-0.06019 -0.05204,-0.222338 -0.0301,-0.432016 0.01259,-0.120307 0.0829,-0.465616 0.01928,-0.506448 -0.07347,-0.04715 -0.247344,-0.265423 -0.338176,-0.143043 -0.11527,0.155301 -0.100809,0.325345 -0.235961,0.375101 -0.135152,0.04976 -0.447581,-0.261066 -0.410319,-0.426932 0.02522,-0.112244 0.225686,-0.463062 0.477879,-0.604094 0.245382,-0.137219 0.592997,-0.169564 0.693825,-0.202517 0.357577,-0.116908 0.730976,0.249886 0.897455,0.691215 z"
             sodipodi:nodetypes="sssssszssss" />
          <path
             style="fill:#917c6f;fill-opacity:1;stroke:#000000;stroke-width:0.150929;stroke-linecap:butt;stroke-linejoin:miter;stroke-miterlimit:4;stroke-dasharray:none;stroke-opacity:1"
             d="m 56.393931,15.688353 0.0979,-0.551587 v 0"
             id="path1529-9-7-5-3-8-4" />
        </g>
        <path
           style="fill:#917c6f;fill-opacity:1;stroke:#000000;stroke-width:0.065;stroke-linecap:butt;stroke-linejoin:miter;stroke-miterlimit:4;stroke-dasharray:none;stroke-opacity:1"
           d="m 56.329032,38.173566 c 0.141829,-0.317303 0.158877,-0.695862 0.134875,-1.094573"
           id="path1968-5-4-7"
           sodipodi:nodetypes="cc" />
      </g>
      <path
         id="rect892-5-3-9-1-7-2-7-1-3-4-5-4"
         style="fill:#87cdde;fill-opacity:1;stroke:#000000;stroke-width:0.973339;stroke-linecap:square;stroke-miterlimit:4;stroke-dasharray:none;stroke-opacity:1;paint-order:markers stroke fill"
         d="m 270.61903,138.22704 0.0634,10.45727 c -1.92042,1.58936 -2.5234,3.57145 -4.85878,0.007 l -1.37113,-10.72912 z"
         sodipodi:nodetypes="ccccc" />
      <path
         id="rect892-5-3-9-1-7-2-7-1-3-4-6-93-0-7"
         style="fill:#87cdde;fill-opacity:1;stroke:#000000;stroke-width:0.924614;stroke-linecap:square;stroke-miterlimit:4;stroke-dasharray:none;stroke-opacity:1;paint-order:markers stroke fill"
         d="m 233.13018,136.70611 0.7189,9.53606 c 2.01969,1.45613 2.76469,3.26577 4.80987,0.0237 l 0.55518,-9.77939 c -1.75942,-1.76531 -3.81147,-1.52734 -6.08395,0.21965 z"
         sodipodi:nodetypes="ccccc" />
      <path
         id="rect875-9-1-1-6-6"
         style="fill:#87cdde;fill-opacity:1;stroke:#000000;stroke-width:1.07697;stroke-linecap:square;stroke-miterlimit:4;stroke-dasharray:none;stroke-opacity:1;paint-order:markers stroke fill"
         d="m 249.10784,178.96915 c 0,0 0.89336,-4.06302 1.2455,-5.4271 0.35231,-1.36403 0.38867,-2.76891 0.38867,-2.76891 -0.82923,-1.50777 -1.52036,-3.19024 -3.36349,-3.41552 -1.92993,0.16834 -3.0435,2.24417 -3.43962,3.13256 -0.39609,0.88838 0.0467,1.64808 0.18098,3.05187 0.13349,1.40378 1.55113,5.4271 1.55113,5.4271 0.86153,0.56581 2.49078,0.77686 3.43683,0 z"
         sodipodi:nodetypes="czcczzccc" />
      <path
         id="rect875-9-1-1-5-1-8"
         style="fill:#2c89a0;fill-opacity:1;stroke:#000000;stroke-width:1.23676;stroke-linecap:square;stroke-miterlimit:4;stroke-dasharray:none;stroke-opacity:1;paint-order:markers stroke fill"
         d="m 249.75821,167.44303 c 0,0 1.14507,-5.20783 1.59643,-6.95628 0.45158,-1.74839 0.49818,-3.54908 0.49818,-3.54908 -1.06287,-1.93261 -1.94873,-4.08915 -4.3112,-4.3779 -2.4737,0.2158 -3.90106,2.87651 -4.40878,4.01521 -0.5077,1.1387 0.0599,2.11243 0.232,3.91177 0.17109,1.79933 1.98818,6.95628 1.98818,6.95628 1.10427,0.72523 3.19259,0.99575 4.4052,0 z"
         sodipodi:nodetypes="czcczzccc" />
      <path
         id="rect875-9-1-1-1-55-8"
         style="fill:#87cdde;fill-opacity:1;stroke:#000000;stroke-width:1.07697;stroke-linecap:square;stroke-miterlimit:4;stroke-dasharray:none;stroke-opacity:1;paint-order:markers stroke fill"
         d="m 257.04618,178.96915 c 0,0 -0.89336,-4.06302 -1.24549,-5.4271 -0.35231,-1.36403 -0.38866,-2.76891 -0.38866,-2.76891 0.82923,-1.50777 1.52035,-3.19024 3.36347,-3.41552 1.92994,0.16834 3.04351,2.24417 3.43963,3.13256 0.39609,0.88838 -0.0468,1.64808 -0.18098,3.05187 -0.13348,1.40378 -1.55113,5.4271 -1.55113,5.4271 -0.86153,0.56581 -2.49078,0.77686 -3.43682,0 z"
         sodipodi:nodetypes="czcczzccc" />
      <path
         id="rect875-9-1-1-5-9-4-4"
         style="fill:#2c89a0;fill-opacity:1;stroke:#000000;stroke-width:1.23676;stroke-linecap:square;stroke-miterlimit:4;stroke-dasharray:none;stroke-opacity:1;paint-order:markers stroke fill"
         d="m 261.12564,167.44303 c 0,0 1.14507,-5.20783 1.59643,-6.95628 0.45159,-1.74839 0.49817,-3.54908 0.49817,-3.54908 -1.06287,-1.93261 -1.94872,-4.08915 -4.31119,-4.3779 -2.47371,0.2158 -3.90106,2.87651 -4.40877,4.01521 -0.5077,1.1387 0.0599,2.11243 0.23199,3.91177 0.17109,1.79933 1.98817,6.95628 1.98817,6.95628 1.10429,0.72523 3.1926,0.99575 4.40521,0 z"
         sodipodi:nodetypes="czcczzccc" />
      <path
         id="rect856-1-3-8-6-8-03-4"
         style="fill:#87cdde;fill-opacity:1;stroke:#000000;stroke-width:1.053;stroke-linecap:square;stroke-miterlimit:4;stroke-dasharray:none;stroke-opacity:1;paint-order:markers stroke fill"
         d="m 263.57087,149.7638 c -0.0814,1.57989 -0.46054,3.45829 -1.71156,4.42658 -3.65409,1.74263 -5.91503,0.70013 -8.88633,0.70004 -2.96926,-8e-5 -6.53518,1.1213 -8.88027,-0.70004 -1.23128,-0.95629 -1.43777,-2.86922 -1.51015,-4.42658 -0.10001,-2.15158 1.32542,-4.13679 1.51015,-6.28275 0.11981,-1.39178 -0.18503,-2.78772 -0.26867,-4.18215 -0.30061,-5.01151 -0.83796,-15.03825 -0.83796,-15.03825 l 7.6815,-2.22205 h 3.88693 l 7.68148,2.22205 c 0,0 -0.0355,10.02729 -0.18216,15.03825 -0.0411,1.39496 -0.34736,2.79499 -0.19452,4.18215 0.23774,2.15751 1.82327,4.11505 1.71156,6.28275 z"
         sodipodi:nodetypes="acaaaaaccccaaa" />
      <path
         id="rect892-5-3-9-1-7-2-77-6-8-2-90-9-0"
         style="fill:#2c89a0;fill-opacity:1;stroke:#000000;stroke-width:0.969893;stroke-linecap:square;stroke-miterlimit:4;stroke-dasharray:none;stroke-opacity:1;paint-order:markers stroke fill"
         d="m 233.04914,136.8324 c 1.23864,1.81776 3.73772,1.56259 6.00271,0.60513 l 4.77738,-7.67405 c 1.41855,-2.76079 2.54895,-5.2841 -0.0964,-5.51409 -2.64527,-0.23 -4.61363,0.49927 -6.05534,2.90089 z"
         sodipodi:nodetypes="cccscc" />
      <path
         id="rect892-5-3-9-1-7-2-77-6-8-7-3"
         style="fill:#2c89a0;fill-opacity:1;stroke:#000000;stroke-width:0.974896;stroke-linecap:square;stroke-miterlimit:4;stroke-dasharray:none;stroke-opacity:1;paint-order:markers stroke fill"
         d="m 270.10486,138.19836 c -1.3327,1.90908 -2.64711,3.89707 -4.67921,2.7877 l -4.7549,-10.76676 c -1.06833,-3.01691 -1.88905,-5.7684 0.61174,-5.9214 2.50078,-0.15302 4.27647,0.70062 5.40045,3.33244 z"
         sodipodi:nodetypes="cccscc" />
      <path
         id="path833-65-1"
         style="fill:#87cdde;fill-opacity:1;stroke:#000000;stroke-width:1.23676;stroke-linecap:square;stroke-miterlimit:4;stroke-dasharray:none;stroke-opacity:1;paint-order:markers stroke fill"
         d="m 270.11528,111.13368 c 0,8.41741 -7.96367,12.77431 -17.78734,12.77431 -9.82366,0 -17.78737,-4.3569 -17.78737,-12.77431 0,-4.08897 0.32384,-10.03358 3.38269,-13.369511 3.23798,-3.5313 9.36402,-4.316839 14.40468,-4.338303 5.18753,-0.02206 11.62769,0.79857 14.86652,4.338303 3.05029,3.333701 2.92082,9.286971 2.92082,13.369511 z"
         sodipodi:nodetypes="ssssass" />
    </g>
  </g>
</svg>
