<?xml version="1.0" encoding="UTF-8" standalone="no"?>
<svg
   xmlns:dc="http://purl.org/dc/elements/1.1/"
   xmlns:cc="http://creativecommons.org/ns#"
   xmlns:rdf="http://www.w3.org/1999/02/22-rdf-syntax-ns#"
   xmlns:svg="http://www.w3.org/2000/svg"
   xmlns="http://www.w3.org/2000/svg"
   xmlns:sodipodi="http://sodipodi.sourceforge.net/DTD/sodipodi-0.dtd"
   xmlns:inkscape="http://www.inkscape.org/namespaces/inkscape"
   width="27.516911mm"
   height="52.916668mm"
   viewBox="0 0 27.51691 52.916668"
   version="1.1"
   id="svg123"
   inkscape:version="1.0.1 (0767f8302a, 2020-10-17)"
   sodipodi:docname="walk_up5.svg">
  <defs
     id="defs117" />
  <sodipodi:namedview
     id="base"
     pagecolor="#ffffff"
     bordercolor="#666666"
     borderopacity="1.0"
     inkscape:pageopacity="0.0"
     inkscape:pageshadow="2"
     inkscape:zoom="2.8857303"
     inkscape:cx="57.033772"
     inkscape:cy="89.151726"
     inkscape:document-units="mm"
     inkscape:current-layer="layer1"
     inkscape:document-rotation="0"
     showgrid="false"
     inkscape:snap-global="false"
     inkscape:window-width="1848"
     inkscape:window-height="1016"
     inkscape:window-x="72"
     inkscape:window-y="27"
     inkscape:window-maximized="1"
     fit-margin-top="0"
     fit-margin-left="0"
     fit-margin-right="0"
     fit-margin-bottom="0" />
  <metadata
     id="metadata120">
    <rdf:RDF>
      <cc:Work
         rdf:about="">
        <dc:format>image/svg+xml</dc:format>
        <dc:type
           rdf:resource="http://purl.org/dc/dcmitype/StillImage" />
        <dc:title />
      </cc:Work>
    </rdf:RDF>
  </metadata>
  <g
     inkscape:label="Calque 1"
     inkscape:groupmode="layer"
     id="layer1"
     transform="translate(-49.22988,-508.86489)">
    <g
       id="g1895"
       transform="matrix(0.43694894,0,0,0.43694894,-90.508585,504.70635)">
      <path
         id="path833-6-9-66-6-9-4-7"
         style="fill:#87cdde;fill-opacity:1;stroke:#000000;stroke-width:1.33802;stroke-linecap:square;stroke-miterlimit:4;stroke-dasharray:none;stroke-opacity:1;paint-order:markers stroke fill"
         d="m 372.93692,62.314023 c -1.62346,1.691923 -0.86157,3.798973 2.34495,5.191101 2.31645,1.005702 4.21294,0.882557 5.69601,-0.852576 1.12933,-1.321306 2.45137,-4.398472 -1.69786,-6.358151 -3.06949,-1.449721 -4.82811,0.440739 -6.3431,2.019626 z"
         sodipodi:nodetypes="sssss" />
      <path
         id="rect892-5-0-2-3-2-6-6-6-0"
         style="fill:#917c6f;fill-opacity:1;stroke:#000000;stroke-width:1.70231;stroke-linecap:square;stroke-miterlimit:4;stroke-dasharray:none;stroke-opacity:1;paint-order:markers stroke fill"
         d="m 343.98333,105.73571 c 0,0 -10.00282,-8.588916 -15.50709,-11.260535 -5.50425,-2.67161 -6.87208,5.055621 -3.86358,9.405275 3.00835,4.34968 14.1641,7.72067 19.40357,4.85794 1.02375,-0.55935 -0.0329,-3.00268 -0.0329,-3.00268 z"
         sodipodi:nodetypes="czzac" />
      <path
         id="rect875-9-1-1-5-5-9-6-3"
         style="fill:#2c89a0;fill-opacity:1;stroke:#000000;stroke-width:1.51504;stroke-linecap:square;stroke-miterlimit:4;stroke-dasharray:none;stroke-opacity:1;paint-order:markers stroke fill"
         d="m 337.16151,92.568533 c 0,0 5.77804,-3.098773 7.77199,-4.077616 1.99407,-0.978595 3.70963,-2.371156 3.70963,-2.371156 0.94198,-2.517504 2.23559,-5.05082 0.5956,-7.452552 -2.20004,-2.101799 -5.83274,-1.292888 -7.30405,-0.851894 -1.47133,0.441017 -1.91998,1.738952 -3.45756,3.331433 -1.5384,1.591555 -4.87534,7.372562 -4.87534,7.372562 0.21655,1.593145 1.65201,3.728338 3.55974,4.049229 z"
         sodipodi:nodetypes="czcczzccc" />
      <path
         id="rect892-5-3-9-1-7-2-7-1-3-0-3-6-2"
         style="fill:#87cdde;fill-opacity:1;stroke:#000000;stroke-width:1.19235;stroke-linecap:square;stroke-miterlimit:4;stroke-dasharray:none;stroke-opacity:1;paint-order:markers stroke fill"
         d="m 378.74491,68.311503 -10.53872,7.335466 c -2.96239,-0.811993 -5.39346,-0.03562 -3.43268,-4.845739 l 9.89195,-8.830109 c 3.6673,2.366903 4.73616,4.448408 4.07945,6.340382 z"
         sodipodi:nodetypes="ccccc" />
      <path
         id="rect875-9-1-1-5-9-9-8-5-9"
         style="fill:#2c89a0;fill-opacity:1;stroke:#000000;stroke-width:1.57335;stroke-linecap:square;stroke-miterlimit:4;stroke-dasharray:none;stroke-opacity:1;paint-order:markers stroke fill"
         d="m 365.25563,98.738473 c 0,0 0.25895,-7.026722 0.42669,-9.400713 0.16805,-2.373967 -0.16426,-4.725876 -0.16426,-4.725876 -1.70066,-2.276695 -3.23586,-4.883948 -6.15122,-4.733991 -2.94085,0.830782 -4.09038,4.608105 -4.45779,6.201732 -0.36698,1.593728 0.52825,2.733594 1.12437,5.035112 0.59493,2.301724 3.90227,8.603475 3.90227,8.603475 1.49011,0.697458 4.07046,0.584778 5.31999,-0.979741 z"
         sodipodi:nodetypes="czcczzccc" />
      <g
         id="g1742-7-1-6-5-6"
         transform="matrix(-3.1220021,4.7705701,-4.8360812,-3.0797104,610.17524,-150.19156)"
         style="fill:#917c6f;fill-opacity:1">
        <path
           id="path839-9-65-0-6-2-1-6-1"
           style="fill:#917c6f;fill-opacity:1;stroke:#000000;stroke-width:0.208387;stroke-linecap:square;stroke-miterlimit:4;stroke-dasharray:none;stroke-opacity:1;paint-order:markers stroke fill"
           d="m 56.926226,14.398792 c 0.147287,0.390464 -0.02387,0.756312 -0.653025,1.311119 -0.129738,0.114408 -0.282738,0.0062 -0.420859,-0.06238 -0.121133,-0.06019 -0.172281,-0.167148 -0.150341,-0.376826 0.01259,-0.120307 0.01769,-0.118881 -0.09183,-0.412455 -0.08823,-0.236495 0.02591,-0.104051 -0.06492,0.01833 -0.11527,0.155301 0.154217,0.199208 0.07308,0.315118 -0.278144,0.397355 -0.668562,-0.298675 -0.689267,-0.590828 -0.01815,-0.25611 0.153678,-0.549738 0.405871,-0.69077 0.245382,-0.137219 0.592997,-0.169564 0.693825,-0.202517 0.357577,-0.116908 0.730976,0.249886 0.897455,0.691215 z"
           sodipodi:nodetypes="ssssssssssss" />
        <path
           style="fill:#917c6f;fill-opacity:1;stroke:#000000;stroke-width:0.150929;stroke-linecap:butt;stroke-linejoin:miter;stroke-miterlimit:4;stroke-dasharray:none;stroke-opacity:1"
           d="m 56.393931,15.688353 0.0979,-0.551587 v 0"
           id="path1529-9-7-7-2-9-0" />
      </g>
      <path
         id="rect856-1-3-8-6-8-3-0-0-8"
         style="fill:#87cdde;fill-opacity:1;stroke:#000000;stroke-width:1.49903098;stroke-linecap:square;stroke-miterlimit:4;stroke-dasharray:none;stroke-opacity:1;paint-order:markers stroke fill"
         d="m 366.64744,78.239633 c -0.10044,1.922221 -0.56803,4.207644 -2.11104,5.385743 -4.50694,2.120238 -7.29558,0.851829 -10.96038,0.851727 -3.66228,-1e-4 -8.06048,1.364258 -10.95291,-0.851727 -1.51867,-1.163497 -1.77335,-3.490938 -1.86262,-5.385743 -0.12335,-2.617792 1.63478,-5.033165 1.86262,-7.64412 0.14776,-1.693354 -0.22823,-3.391788 -0.33138,-5.088348 -0.37077,-6.097433 -1.03355,-18.296802 -1.03355,-18.296802 l 9.47436,-2.703539 h 4.79413 l 9.47432,2.703539 c 0,0 -0.0438,12.20004 -0.22467,18.296802 -0.0507,1.69722 -0.42844,3.400609 -0.23992,5.088348 0.29323,2.625015 2.24883,5.006717 2.11104,7.64412 z"
         sodipodi:nodetypes="acaaaaaccccaaa" />
      <path
         id="path833-6-2-6-6"
         style="fill:#87cdde;fill-opacity:1;stroke:#000000;stroke-width:1.52521;stroke-linecap:square;stroke-miterlimit:4;stroke-dasharray:none;stroke-opacity:1;paint-order:markers stroke fill"
         d="m 374.82635,32.118177 c 0,10.380588 -9.82108,15.753648 -21.93598,15.753648 -12.11489,0 -21.93598,-5.37306 -21.93598,-15.753648 0,-5.04263 0.39937,-12.373692 4.17163,-16.487659 3.99318,-4.354904 11.54803,-5.323657 17.76435,-5.35012 6.39744,-0.02722 14.33968,0.984811 18.33392,5.35012 3.76173,4.111209 3.60206,11.452957 3.60206,16.487659 z"
         sodipodi:nodetypes="ssssass" />
      <path
         id="rect875-9-1-1-3-5-0-4"
         style="fill:#87cdde;fill-opacity:1;stroke:#000000;stroke-width:1.54795;stroke-linecap:square;stroke-miterlimit:4;stroke-dasharray:none;stroke-opacity:1;paint-order:markers stroke fill"
         d="m 344.97056,104.96134 c 0,0 -2.39972,-6.523947 -3.15719,-8.765908 -0.75731,-2.242077 -1.83846,-4.228089 -1.83846,-4.228089 -1.96143,-1.272204 -3.93404,-2.923566 -5.81324,-1.412048 -1.6469,2.143766 -1.02715,6.127302 -0.68768,7.7525 0.33948,1.625167 1.35077,2.241415 2.58851,4.057065 1.23702,1.81646 5.7373,5.99802 5.7373,5.99802 1.24377,-0.0672 2.91434,-1.38687 3.17076,-3.4015 z"
         sodipodi:nodetypes="czcczzccc" />
      <path
         id="rect875-9-1-1-1-2-2-5-4"
         style="fill:#87cdde;fill-opacity:1;stroke:#000000;stroke-width:1.4223;stroke-linecap:square;stroke-miterlimit:4;stroke-dasharray:none;stroke-opacity:1;paint-order:markers stroke fill"
         d="m 356.84024,114.30115 c 0,0 0.25027,-5.94412 0.2729,-7.95957 0.0224,-2.01544 0.42945,-3.96735 0.42945,-3.96735 1.45817,-1.76572 2.80982,-3.824797 5.04985,-3.436678 2.21608,0.964086 2.86115,4.250208 3.04258,5.626018 0.18142,1.37582 -0.58274,2.25593 -1.19011,4.14172 -0.60651,1.88608 -3.56228,6.89908 -3.56228,6.89908 -1.19452,0.4539 -3.17844,0.12728 -4.04241,-1.30324 z"
         sodipodi:nodetypes="czcczzccc" />
      <g
         id="g1548"
         transform="translate(109.2547,-80.843967)">
        <path
           id="rect892-5-0-2-3-2-6-7-35-6-1"
           style="fill:#917c6f;fill-opacity:1;stroke:#000000;stroke-width:1.32993;stroke-linecap:square;stroke-miterlimit:4;stroke-dasharray:none;stroke-opacity:1;paint-order:markers stroke fill"
           d="m 250.47909,196.23886 c 2.84155,4.01216 6.82795,7.15959 8.75513,11.01748 1.92717,3.85789 -5.06801,4.4824 -8.69498,2.25873 -3.62702,-2.22362 -6.60573,-9.12815 -4.11935,-12.89283 0.749,-1.13407 2.34204,-2.80793 4.0592,-0.38338 z"
           sodipodi:nodetypes="szzas" />
        <path
           style="fill:none;stroke:#000000;stroke-width:0.915461;stroke-linecap:butt;stroke-linejoin:miter;stroke-miterlimit:4;stroke-dasharray:none;stroke-opacity:1"
           d="m 259.14987,209.95734 c -0.83877,1.45136 -6.49979,-10.58711 -13.02881,-12.71065"
           id="path582-6-0-8"
           sodipodi:nodetypes="cc" />
      </g>
      <path
         id="path2040-7-9-3-1"
         style="fill:#917c6f;fill-opacity:1;stroke:#000000;stroke-width:1.22494;stroke-linecap:square;stroke-miterlimit:4;stroke-dasharray:none;stroke-opacity:1;paint-order:markers stroke fill"
         d="m 362.1975,112.4384 c -1.70157,-0.67592 -3.9613,-2.81787 -5.36639,-1.55929 0,0 -1.47231,4.3814 -0.8297,4.3213 1.51271,-0.14148 4.17863,0.22971 3.98761,1.12222 z"
         sodipodi:nodetypes="ccscc" />
      <path
         id="rect892-5-3-9-1-7-2-77-6-9-7-7-2"
         style="fill:#2c89a0;fill-opacity:1;stroke:#000000;stroke-width:1.19426;stroke-linecap:square;stroke-miterlimit:4;stroke-dasharray:none;stroke-opacity:1;paint-order:markers stroke fill"
         d="m 378.96355,59.439133 c -0.40816,2.803974 -0.75239,5.683654 -3.60639,5.591025 l -11.21368,-9.094499 c -2.85131,-2.692907 -5.28261,-5.233004 -2.61309,-6.768602 2.66952,-1.535599 5.09916,-1.580429 7.79803,0.663605 z"
         sodipodi:nodetypes="cccscc" />
      <g
         id="g1742-7-6-3-6"
         transform="matrix(-5.3954781,1.9786685,2.0058402,5.3223893,598.66737,-114.96738)"
         style="fill:#917c6f;fill-opacity:1">
        <path
           id="path839-9-65-0-6-3-6-1"
           style="fill:#917c6f;fill-opacity:1;stroke:#000000;stroke-width:0.208387;stroke-linecap:square;stroke-miterlimit:4;stroke-dasharray:none;stroke-opacity:1;paint-order:markers stroke fill"
           d="m 56.926226,14.398792 c 0.147287,0.390464 -0.02387,0.756312 -0.653025,1.311119 -0.129738,0.114408 -0.282738,0.0062 -0.420859,-0.06238 -0.121133,-0.06019 -0.05204,-0.222338 -0.0301,-0.432016 0.01259,-0.120307 0.0829,-0.465616 0.01928,-0.506448 -0.07347,-0.04715 -0.247344,-0.265423 -0.338176,-0.143043 -0.11527,0.155301 -0.100809,0.325345 -0.235961,0.375101 -0.135152,0.04976 -0.447581,-0.261066 -0.410319,-0.426932 0.02522,-0.112244 0.225686,-0.463062 0.477879,-0.604094 0.245382,-0.137219 0.592997,-0.169564 0.693825,-0.202517 0.357577,-0.116908 0.730976,0.249886 0.897455,0.691215 z"
           sodipodi:nodetypes="sssssszssss" />
        <path
           style="fill:#917c6f;fill-opacity:1;stroke:#000000;stroke-width:0.150929;stroke-linecap:butt;stroke-linejoin:miter;stroke-miterlimit:4;stroke-dasharray:none;stroke-opacity:1"
           d="m 56.393931,15.688353 0.0979,-0.551587 v 0"
           id="path1529-9-7-9-0-5" />
      </g>
      <path
         id="rect892-5-3-9-1-7-2-7-1-3-4-6-94"
         style="fill:#87cdde;fill-opacity:1;stroke:#000000;stroke-width:1.19235;stroke-linecap:square;stroke-miterlimit:4;stroke-dasharray:none;stroke-opacity:1;paint-order:markers stroke fill"
         d="m 328.20098,57.040665 -5.70183,11.412654 c 1.27502,2.75989 0.87669,5.249766 5.38747,2.589126 l 7.29931,-11.015507 z"
         sodipodi:nodetypes="ccccc" />
      <path
         id="rect892-5-3-9-1-7-2-77-6-8-2-9"
         style="fill:#2c89a0;fill-opacity:1;stroke:#000000;stroke-width:1.19426;stroke-linecap:square;stroke-miterlimit:4;stroke-dasharray:none;stroke-opacity:1;paint-order:markers stroke fill"
         d="m 326.97269,57.773719 c 0.19392,2.826264 0.31835,5.723299 3.17137,5.841989 l 11.87326,-8.239639 c 3.04795,-2.474462 5.66543,-4.827626 3.12012,-6.556317 -2.54529,-1.728686 -4.96469,-1.953063 -7.82651,0.08506 z"
         sodipodi:nodetypes="cccscc" />
      <path
         id="path2040-7-5"
         style="fill:#917c6f;fill-opacity:1;stroke:#000000;stroke-width:1.22494;stroke-linecap:square;stroke-miterlimit:4;stroke-dasharray:none;stroke-opacity:1;paint-order:markers stroke fill"
         d="m 337.9336,105.01412 c 2.5551,0.64776 6.64681,-2.22575 6.64681,-2.22575 0,0 1.06164,2.40374 1.13797,3.04461 0.58841,4.94003 -5.57945,3.67566 -5.57945,3.67566 z"
         sodipodi:nodetypes="ccscc" />
    </g>
  </g>
</svg>
