<?xml version="1.0" encoding="UTF-8" standalone="no"?>
<svg
   xmlns:dc="http://purl.org/dc/elements/1.1/"
   xmlns:cc="http://creativecommons.org/ns#"
   xmlns:rdf="http://www.w3.org/1999/02/22-rdf-syntax-ns#"
   xmlns:svg="http://www.w3.org/2000/svg"
   xmlns="http://www.w3.org/2000/svg"
   xmlns:sodipodi="http://sodipodi.sourceforge.net/DTD/sodipodi-0.dtd"
   xmlns:inkscape="http://www.inkscape.org/namespaces/inkscape"
   width="27.388958mm"
   height="52.916668mm"
   viewBox="0 0 27.388957 52.916667"
   version="1.1"
   id="svg123"
   inkscape:version="1.0.1 (0767f8302a, 2020-10-17)"
   sodipodi:docname="walk_up3.svg">
  <defs
     id="defs117" />
  <sodipodi:namedview
     id="base"
     pagecolor="#ffffff"
     bordercolor="#666666"
     borderopacity="1.0"
     inkscape:pageopacity="0.0"
     inkscape:pageshadow="2"
     inkscape:zoom="3.3263529"
     inkscape:cx="56.337329"
     inkscape:cy="95.157777"
     inkscape:document-units="mm"
     inkscape:current-layer="layer1"
     inkscape:document-rotation="0"
     showgrid="false"
     inkscape:snap-global="false"
     inkscape:window-width="1848"
     inkscape:window-height="1016"
     inkscape:window-x="72"
     inkscape:window-y="27"
     inkscape:window-maximized="1"
     fit-margin-top="0"
     fit-margin-left="0"
     fit-margin-right="0"
     fit-margin-bottom="0" />
  <metadata
     id="metadata120">
    <rdf:RDF>
      <cc:Work
         rdf:about="">
        <dc:format>image/svg+xml</dc:format>
        <dc:type
           rdf:resource="http://purl.org/dc/dcmitype/StillImage" />
        <dc:title />
      </cc:Work>
    </rdf:RDF>
  </metadata>
  <g
     inkscape:label="Calque 1"
     inkscape:groupmode="layer"
     id="layer1"
     transform="translate(-51.718914,-264.39347)">
    <g
       id="g1844"
       transform="matrix(0.47224744,0,0,0.47224744,-38.517723,257.43326)">
      <path
         id="rect892-5-3-9-1-7-2-7-1-3-0-3"
         style="fill:#87cdde;fill-opacity:1;stroke:#000000;stroke-width:1.20035;stroke-linecap:square;stroke-miterlimit:4;stroke-dasharray:none;stroke-opacity:1;paint-order:markers stroke fill"
         d="m 196.37666,74.150544 12.72472,-2.09743 c 1.53266,-2.664919 3.81663,-3.810045 -1.00148,-5.907741 l -13.32712,0.564311 c -0.92881,4.282353 -0.20965,6.535408 1.60388,7.44086 z"
         sodipodi:nodetypes="ccccc" />
      <g
         id="g1742-7-1-6"
         transform="matrix(4.8041491,3.1695398,3.1695398,-4.8041491,-103.21127,-40.251994)"
         style="fill:#917c6f;fill-opacity:1">
        <path
           id="path839-9-65-0-6-2-1"
           style="fill:#917c6f;fill-opacity:1;stroke:#000000;stroke-width:0.208387;stroke-linecap:square;stroke-miterlimit:4;stroke-dasharray:none;stroke-opacity:1;paint-order:markers stroke fill"
           d="m 56.926226,14.398792 c 0.147287,0.390464 -0.02387,0.756312 -0.653025,1.311119 -0.129738,0.114408 -0.282738,0.0062 -0.420859,-0.06238 -0.121133,-0.06019 -0.172281,-0.167148 -0.150341,-0.376826 0.01259,-0.120307 0.01769,-0.118881 -0.09183,-0.412455 -0.08823,-0.236495 0.02591,-0.104051 -0.06492,0.01833 -0.11527,0.155301 0.154217,0.199208 0.07308,0.315118 -0.278144,0.397355 -0.668562,-0.298675 -0.689267,-0.590828 -0.01815,-0.25611 0.153678,-0.549738 0.405871,-0.69077 0.245382,-0.137219 0.592997,-0.169564 0.693825,-0.202517 0.357577,-0.116908 0.730976,0.249886 0.897455,0.691215 z"
           sodipodi:nodetypes="ssssssssssss" />
        <path
           style="fill:#917c6f;fill-opacity:1;stroke:#000000;stroke-width:0.150929;stroke-linecap:butt;stroke-linejoin:miter;stroke-miterlimit:4;stroke-dasharray:none;stroke-opacity:1"
           d="m 56.393931,15.688353 0.0979,-0.551587 v 0"
           id="path1529-9-7-7-2" />
      </g>
      <path
         id="rect875-9-1-1-5-5-9"
         style="fill:#2c89a0;fill-opacity:1;stroke:#000000;stroke-width:1.52521;stroke-linecap:square;stroke-miterlimit:4;stroke-dasharray:none;stroke-opacity:1;paint-order:markers stroke fill"
         d="m 208.97232,104.8864 c 0,0 4.4049,-4.88252 5.95549,-6.480904 1.55079,-1.598193 2.69947,-3.499565 2.69947,-3.499565 0.0402,-2.719716 0.40666,-5.571398 -1.94901,-7.322385 -2.78276,-1.278146 -5.93597,0.702381 -7.17489,1.612913 -1.23893,0.910555 -1.22476,2.300449 -2.13826,4.333794 -0.91457,2.032734 -2.11385,8.668177 -2.11385,8.668177 0.74094,1.45104 2.81392,3.0152 4.72106,2.68798 z"
         sodipodi:nodetypes="czcczzccc" />
      <path
         id="rect875-9-1-1-5-9-9-8"
         style="fill:#2c89a0;fill-opacity:1;stroke:#000000;stroke-width:1.58391;stroke-linecap:square;stroke-miterlimit:4;stroke-dasharray:none;stroke-opacity:1;paint-order:markers stroke fill"
         d="m 235.67187,104.00047 c 0,0 -1.342,-6.999495 -1.71717,-9.382252 -0.37489,-2.382795 -1.23236,-4.631814 -1.23236,-4.631814 -2.17385,-1.868451 -4.26147,-4.10048 -7.06846,-3.299819 -2.67733,1.478934 -2.94049,5.467756 -2.93695,7.124298 0.004,1.656543 1.13503,2.582217 2.23814,4.722409 1.10202,2.140658 5.75484,7.625758 5.75484,7.625758 1.61035,0.35548 4.09933,-0.33337 4.96201,-2.1586 z"
         sodipodi:nodetypes="czcczzccc" />
      <path
         id="rect856-1-3-8-6-8-3-0"
         style="fill:#87cdde;fill-opacity:1;stroke:#000000;stroke-width:1.38698475;stroke-linecap:square;stroke-miterlimit:4;stroke-dasharray:none;stroke-opacity:1;paint-order:markers stroke fill"
         d="m 233.4199,84.979231 c -0.10042,1.94836 -0.56795,4.264861 -2.11076,5.458981 -4.50634,2.14907 -7.29462,0.863409 -10.95893,0.863309 -3.6618,-1.01e-4 -8.05942,1.38281 -10.95147,-0.863309 -1.51846,-1.17932 -1.77311,-3.538411 -1.86237,-5.458981 -0.12333,-2.65339 1.63456,-5.101609 1.86237,-7.748069 0.14775,-1.716382 -0.22819,-3.437911 -0.33133,-5.157542 C 208.69669,65.893271 208.034,53.528009 208.034,53.528009 l 9.4731,-2.740303 h 4.7935 l 9.47307,2.740303 c 0,0 -0.0438,12.365942 -0.22464,18.545611 -0.0507,1.7203 -0.42838,3.446852 -0.23989,5.157542 0.29319,2.660711 2.24853,5.074801 2.11076,7.748069 z"
         sodipodi:nodetypes="acaaaaaccccaaa" />
      <path
         id="path833-6-2"
         style="fill:#87cdde;fill-opacity:1;stroke:#000000;stroke-width:1.52521;stroke-linecap:square;stroke-miterlimit:4;stroke-dasharray:none;stroke-opacity:1;paint-order:markers stroke fill"
         d="m 241.60084,37.339449 c 0,10.380588 -9.82108,15.753648 -21.93598,15.753648 -12.11489,0 -21.93598,-5.37306 -21.93598,-15.753648 0,-5.04263 0.39937,-12.373692 4.17163,-16.487659 3.99318,-4.354903 11.54803,-5.323656 17.76435,-5.350119 6.39744,-0.02722 14.33968,0.98481 18.33392,5.350119 3.76173,4.111209 3.60206,11.452957 3.60206,16.487659 z"
         sodipodi:nodetypes="ssssass" />
      <path
         id="rect875-9-1-1-3-5"
         style="fill:#87cdde;fill-opacity:1;stroke:#000000;stroke-width:1.32815;stroke-linecap:square;stroke-miterlimit:4;stroke-dasharray:none;stroke-opacity:1;paint-order:markers stroke fill"
         d="m 219.10644,107.67511 c 0,0 -4.18299,-2.97034 -5.56221,-4.02686 -1.3791,-1.0567 -2.95663,-1.77431 -2.95663,-1.77431 -2.11112,0.21561 -4.35409,0.19032 -5.4972,2.17455 -0.73797,2.27224 1.08279,4.53594 1.90074,5.41338 0.81795,0.87742 1.89366,0.74039 3.55214,1.26376 1.6581,0.52427 6.90858,0.85164 6.90858,0.85164 1.05721,-0.70571 2.08115,-2.454 1.65459,-3.90212 z"
         sodipodi:nodetypes="czcczzccc" />
      <path
         id="rect892-5-0-2-3-2-6-6-61"
         style="fill:#917c6f;fill-opacity:1;stroke:#000000;stroke-width:1.52521;stroke-linecap:square;stroke-miterlimit:4;stroke-dasharray:none;stroke-opacity:1;paint-order:markers stroke fill"
         d="m 224.07769,120.51885 c 0,0 10.13923,-5.09238 15.01611,-5.91461 4.87687,-0.82223 3.21986,7.05972 -0.43356,10.29357 -3.6534,3.23391 -15.63286,-1.49584 -15.63286,-1.49584 z"
         sodipodi:nodetypes="czzcc" />
      <path
         id="rect875-9-1-1-1-2-2"
         style="fill:#87cdde;fill-opacity:1;stroke:#000000;stroke-width:1.43184;stroke-linecap:square;stroke-miterlimit:4;stroke-dasharray:none;stroke-opacity:1;paint-order:markers stroke fill"
         d="m 223.31327,117.78124 c 0,0 1.9509,-5.70584 2.55273,-7.65817 0.60159,-1.95238 1.55373,-3.73378 1.55373,-3.73378 1.90619,-1.30201 3.79472,-2.91936 5.83053,-1.90612 1.84706,1.56621 1.5196,4.94304 1.29753,6.33168 -0.2221,1.38863 -1.20804,2.027 -2.33314,3.68728 -1.12436,1.66081 -5.40103,5.69351 -5.40103,5.69351 -1.27584,0.10195 -3.08382,-0.77878 -3.50033,-2.4144 z"
         sodipodi:nodetypes="czcczzccc" />
      <path
         id="path833-6-9-66-6-9"
         style="fill:#87cdde;fill-opacity:1;stroke:#000000;stroke-width:1.347;stroke-linecap:square;stroke-miterlimit:4;stroke-dasharray:none;stroke-opacity:1;paint-order:markers stroke fill"
         d="m 200.92564,67.941368 c 1.62324,1.714932 0.86145,3.850635 -2.34464,5.261692 -2.31615,1.019379 -4.21239,0.894559 -5.69526,-0.864169 -1.12918,-1.339273 -2.45105,-4.458284 1.69763,-6.444612 3.06909,-1.469435 4.82748,0.446733 6.34227,2.047089 z"
         sodipodi:nodetypes="sssss" />
      <path
         id="rect892-5-3-9-1-7-2-77-6-9-7"
         style="fill:#2c89a0;fill-opacity:1;stroke:#000000;stroke-width:1.20227;stroke-linecap:square;stroke-miterlimit:4;stroke-dasharray:none;stroke-opacity:1;paint-order:markers stroke fill"
         d="m 194.8998,65.027385 c 0.40811,2.842104 0.75229,5.760942 3.60592,5.667055 l 11.2122,-9.218171 c 2.85093,-2.729526 5.28191,-5.304165 2.61274,-6.860646 -2.66917,-1.55648 -5.09849,-1.601919 -7.797,0.672629 z"
         sodipodi:nodetypes="cccscc" />
      <g
         id="g1742-7-6-3-9"
         transform="matrix(5.3947658,2.0055754,-2.0055754,5.3947658,-29.749341,-107.59011)"
         style="fill:#917c6f;fill-opacity:1">
        <path
           id="path839-9-65-0-6-3-6-3"
           style="fill:#917c6f;fill-opacity:1;stroke:#000000;stroke-width:0.208387;stroke-linecap:square;stroke-miterlimit:4;stroke-dasharray:none;stroke-opacity:1;paint-order:markers stroke fill"
           d="m 56.926226,14.398792 c 0.147287,0.390464 -0.02387,0.756312 -0.653025,1.311119 -0.129738,0.114408 -0.282738,0.0062 -0.420859,-0.06238 -0.121133,-0.06019 -0.05204,-0.222338 -0.0301,-0.432016 0.01259,-0.120307 0.0829,-0.465616 0.01928,-0.506448 -0.07347,-0.04715 -0.247344,-0.265423 -0.338176,-0.143043 -0.11527,0.155301 -0.100809,0.325345 -0.235961,0.375101 -0.135152,0.04976 -0.447581,-0.261066 -0.410319,-0.426932 0.02522,-0.112244 0.225686,-0.463062 0.477879,-0.604094 0.245382,-0.137219 0.592997,-0.169564 0.693825,-0.202517 0.357577,-0.116908 0.730976,0.249886 0.897455,0.691215 z"
           sodipodi:nodetypes="sssssszssss" />
        <path
           style="fill:#917c6f;fill-opacity:1;stroke:#000000;stroke-width:0.150929;stroke-linecap:butt;stroke-linejoin:miter;stroke-miterlimit:4;stroke-dasharray:none;stroke-opacity:1"
           d="m 56.393931,15.688353 0.0979,-0.551587 v 0"
           id="path1529-9-7-9-0-1" />
      </g>
      <path
         id="rect892-5-3-9-1-7-2-7-1-3-4-6-9"
         style="fill:#87cdde;fill-opacity:1;stroke:#000000;stroke-width:1.10738;stroke-linecap:square;stroke-miterlimit:4;stroke-dasharray:none;stroke-opacity:1;paint-order:markers stroke fill"
         d="m 242.41006,67.098717 3.56007,11.218685 c -1.58849,2.332577 -1.59227,4.65892 -5.3586,1.587465 l -5.0937,-11.085713 z"
         sodipodi:nodetypes="ccccc" />
      <path
         id="rect892-5-3-9-1-7-2-77-6-8-2-4"
         style="fill:#2c89a0;fill-opacity:1;stroke:#000000;stroke-width:1.20227;stroke-linecap:square;stroke-miterlimit:4;stroke-dasharray:none;stroke-opacity:1;paint-order:markers stroke fill"
         d="m 243.38766,69.009875 c -1.15647,2.628055 -2.27198,5.347199 -4.99554,4.49031 l -8.32431,-11.890896 c -2.01308,-3.394954 -3.66321,-6.527925 -0.67406,-7.310306 2.98911,-0.782383 5.34138,-0.173667 7.32983,2.742084 z"
         sodipodi:nodetypes="cccscc" />
      <path
         id="path2040-7-9-7"
         style="fill:#917c6f;fill-opacity:1;stroke:#000000;stroke-width:1.22494;stroke-linecap:square;stroke-miterlimit:4;stroke-dasharray:none;stroke-opacity:1;paint-order:markers stroke fill"
         d="m 228.99609,119.14021 c -2.09649,1.24232 -4.00997,0.58729 -5.77608,-1.59565 0,0 -1.97209,1.86594 -2.01483,2.50995 -0.32949,4.96402 5.76389,3.37911 5.76389,3.37911 z"
         sodipodi:nodetypes="ccscc" />
      <g
         id="g1441"
         transform="rotate(-17.985401,209.54523,110.04825)">
        <path
           id="path2040-7-2"
           style="fill:#917c6f;fill-opacity:1;stroke:#000000;stroke-width:1.22494;stroke-linecap:square;stroke-miterlimit:4;stroke-dasharray:none;stroke-opacity:1;paint-order:markers stroke fill"
           d="m 220.3834,111.86243 c -1.13542,-3.12454 -5.41543,2.56561 -5.41543,2.56561 0,0 -2.26372,-1.49885 -2.41662,-2.12589 -1.17861,-4.83332 5.09658,-4.32037 5.09658,-4.32037 z"
           sodipodi:nodetypes="ccscc" />
        <path
           id="rect892-5-0-2-3-2-6-7-9"
           style="fill:#917c6f;fill-opacity:1;stroke:#000000;stroke-width:1.32993;stroke-linecap:square;stroke-miterlimit:4;stroke-dasharray:none;stroke-opacity:1;paint-order:markers stroke fill"
           d="m 217.17341,112.29015 c -2.84155,4.01216 -6.82795,7.15959 -8.75513,11.01748 -1.92717,3.85789 5.06801,4.4824 8.69498,2.25873 3.62701,-2.22362 6.60572,-9.12815 4.11934,-12.89283 -0.749,-1.13407 -2.34204,-2.80793 -4.05919,-0.38338 z"
           sodipodi:nodetypes="szzas" />
        <path
           style="fill:none;stroke:#000000;stroke-width:0.915461;stroke-linecap:butt;stroke-linejoin:miter;stroke-miterlimit:4;stroke-dasharray:none;stroke-opacity:1"
           d="m 208.50263,126.00863 c 0.83877,1.45136 6.49979,-10.58711 13.0288,-12.71065"
           id="path582-1"
           sodipodi:nodetypes="cc" />
      </g>
    </g>
  </g>
</svg>
