<?xml version="1.0" encoding="UTF-8" standalone="no"?>
<svg
   xmlns:dc="http://purl.org/dc/elements/1.1/"
   xmlns:cc="http://creativecommons.org/ns#"
   xmlns:rdf="http://www.w3.org/1999/02/22-rdf-syntax-ns#"
   xmlns:svg="http://www.w3.org/2000/svg"
   xmlns="http://www.w3.org/2000/svg"
   xmlns:sodipodi="http://sodipodi.sourceforge.net/DTD/sodipodi-0.dtd"
   xmlns:inkscape="http://www.inkscape.org/namespaces/inkscape"
   width="22.462826mm"
   height="52.916668mm"
   viewBox="0 0 22.462825 52.916669"
   version="1.1"
   id="svg123"
   inkscape:version="1.0.1 (0767f8302a, 2020-10-17)"
   sodipodi:docname="walk_up1.svg">
  <defs
     id="defs117" />
  <sodipodi:namedview
     id="base"
     pagecolor="#ffffff"
     bordercolor="#666666"
     borderopacity="1.0"
     inkscape:pageopacity="0.0"
     inkscape:pageshadow="2"
     inkscape:zoom="3.0783622"
     inkscape:cx="38.038051"
     inkscape:cy="101.87909"
     inkscape:document-units="mm"
     inkscape:current-layer="layer1"
     inkscape:document-rotation="0"
     showgrid="false"
     inkscape:snap-global="false"
     inkscape:window-width="1848"
     inkscape:window-height="1016"
     inkscape:window-x="72"
     inkscape:window-y="27"
     inkscape:window-maximized="1"
     fit-margin-top="0"
     fit-margin-left="0"
     fit-margin-right="0"
     fit-margin-bottom="0" />
  <metadata
     id="metadata120">
    <rdf:RDF>
      <cc:Work
         rdf:about="">
        <dc:format>image/svg+xml</dc:format>
        <dc:type
           rdf:resource="http://purl.org/dc/dcmitype/StillImage" />
        <dc:title />
      </cc:Work>
    </rdf:RDF>
  </metadata>
  <g
     inkscape:label="Calque 1"
     inkscape:groupmode="layer"
     id="layer1"
     transform="translate(-56.253386,-7.6607148)">
    <g
       id="g1162"
       transform="matrix(0.45909867,0,0,0.45909867,33.713173,1.0773094)">
      <path
         id="rect892-5-0-2-3-2-6-5-6"
         style="fill:#917c6f;fill-opacity:1;stroke:#000000;stroke-width:1.4942;stroke-linecap:square;stroke-miterlimit:4;stroke-dasharray:none;stroke-opacity:1;paint-order:markers stroke fill"
         d="m 79.258373,125.60149 c 0,0 4.653531,-10.27285 7.851121,-13.9291 3.197598,-3.65624 6.593319,3.58953 5.74126,8.39581 -0.851961,4.80629 -7.89619,10.15745 -12.685651,8.45758 -0.961767,-0.34135 -0.90673,-2.92429 -0.90673,-2.92429 z"
         sodipodi:nodetypes="czzsc" />
      <path
         id="path2040-2"
         style="fill:#917c6f;fill-opacity:1;stroke:#000000;stroke-width:1.5252;stroke-linecap:square;stroke-miterlimit:4;stroke-dasharray:none;stroke-opacity:1;paint-order:markers stroke fill"
         d="m 84.107042,124.13195 c 0,2.35173 -0.651888,4.25817 -3.393037,4.25817 -2.741131,0 -3.022481,-2.14641 -3.022481,-4.49813 0,-2.35173 0.281328,-4.01822 3.022481,-4.01822 2.741149,0 3.393037,1.90645 3.393037,4.25818 z"
         sodipodi:nodetypes="sssss" />
      <path
         id="rect875-9-1-1-1-8"
         style="fill:#87cdde;fill-opacity:1;stroke:#000000;stroke-width:1.32815;stroke-linecap:square;stroke-miterlimit:4;stroke-dasharray:none;stroke-opacity:1;paint-order:markers stroke fill"
         d="m 78.744454,120.59744 c 0,0 -1.101712,-5.01062 -1.536001,-6.69287 -0.434481,-1.68217 -0.47932,-3.41469 -0.47932,-3.41469 1.022642,-1.85942 1.874949,-3.93429 4.147971,-4.21211 2.380049,0.20759 3.753369,2.76759 4.241869,3.86316 0.488471,1.09559 -0.0577,2.03245 -0.22321,3.76364 -0.1646,1.73121 -1.91289,6.69287 -1.91289,6.69287 -1.062469,0.69777 -3.07172,0.95805 -4.238419,0 z"
         sodipodi:nodetypes="czcczzccc" />
      <path
         id="rect875-9-1-1-5-9-5"
         style="fill:#2c89a0;fill-opacity:1;stroke:#000000;stroke-width:1.5252;stroke-linecap:square;stroke-miterlimit:4;stroke-dasharray:none;stroke-opacity:1;paint-order:markers stroke fill"
         d="m 84.229603,106.3831 c 0,0 1.412139,-6.422446 1.96878,-8.578677 0.5569,-2.156169 0.614371,-4.376841 0.614371,-4.376841 -1.310781,-2.383348 -2.403251,-5.042839 -5.316731,-5.398928 -3.050659,0.266131 -4.810929,3.54738 -5.437061,4.951661 -0.626099,1.404279 0.0739,2.605098 0.286102,4.824108 0.211,2.218987 2.451899,8.578677 2.451899,8.578677 1.361829,0.89437 3.937209,1.22799 5.43264,0 z"
         sodipodi:nodetypes="czcczzccc" />
      <path
         id="rect892-5-0-2-3-2-6-5"
         style="fill:#917c6f;fill-opacity:1;stroke:#000000;stroke-width:1.5252;stroke-linecap:square;stroke-miterlimit:4;stroke-dasharray:none;stroke-opacity:1;paint-order:markers stroke fill"
         d="m 69.641933,125.37454 c 0,0 -4.85772,-10.25372 -8.19562,-13.90317 -3.337905,-3.64942 -6.882627,3.58286 -5.993188,8.38018 0.889347,4.79734 8.315742,10.21146 13.242308,8.44184 0.962609,-0.34577 0.9465,-2.91885 0.9465,-2.91885 z"
         sodipodi:nodetypes="czzsc" />
      <path
         id="path2040"
         style="fill:#917c6f;fill-opacity:1;stroke:#000000;stroke-width:1.52521;stroke-linecap:square;stroke-miterlimit:4;stroke-dasharray:none;stroke-opacity:1;paint-order:markers stroke fill"
         d="m 71.102753,124.05519 c 0,2.35174 -0.65188,4.25818 -3.39303,4.25818 -2.74114,0 -3.02248,-2.14641 -3.02248,-4.49813 0,-2.35174 0.28133,-4.01823 3.02248,-4.01823 2.74115,0 3.39303,1.90646 3.39303,4.25818 z"
         sodipodi:nodetypes="sssss" />
      <path
         id="rect875-9-1-1-9"
         style="fill:#87cdde;fill-opacity:1;stroke:#000000;stroke-width:1.32815;stroke-linecap:square;stroke-miterlimit:4;stroke-dasharray:none;stroke-opacity:1;paint-order:markers stroke fill"
         d="m 69.686203,120.59744 c 0,0 1.10171,-5.01062 1.53598,-6.69287 0.43448,-1.68217 0.47932,-3.41469 0.47932,-3.41469 -1.02263,-1.85942 -1.87496,-3.93429 -4.14798,-4.21211 -2.38004,0.20759 -3.75335,2.76759 -4.24185,3.86316 -0.48847,1.09559 0.0577,2.03245 0.22319,3.76364 0.16462,1.73121 1.9129,6.69287 1.9129,6.69287 1.06247,0.69777 3.07171,0.95805 4.23843,0 z"
         sodipodi:nodetypes="czcczzccc" />
      <path
         id="rect875-9-1-1-5-6"
         style="fill:#2c89a0;fill-opacity:1;stroke:#000000;stroke-width:1.5252;stroke-linecap:square;stroke-miterlimit:4;stroke-dasharray:none;stroke-opacity:1;paint-order:markers stroke fill"
         d="m 70.210893,106.3831 c 0,0 1.41213,-6.422446 1.96876,-8.578677 0.55691,-2.156169 0.61438,-4.376841 0.61438,-4.376841 -1.31078,-2.383348 -2.40325,-5.042839 -5.31672,-5.398928 -3.05067,0.266131 -4.81093,3.54738 -5.43707,4.951661 -0.62611,1.404279 0.0739,2.605098 0.28611,4.824108 0.21099,2.218987 2.45189,8.578677 2.45189,8.578677 1.36183,0.89437 3.93721,1.22799 5.43265,0 z"
         sodipodi:nodetypes="czcczzccc" />
      <g
         id="g2015"
         transform="matrix(5.7555043,0,0,5.7555043,-201.66548,-126.52229)"
         style="fill:#917c6f;fill-opacity:1">
        <g
           id="g1742-7-1-1"
           transform="matrix(-0.99470109,0.10280927,0.10280927,0.99470109,98.842653,17.143715)"
           style="fill:#917c6f;fill-opacity:1">
          <path
             id="path839-9-65-0-6-1-7"
             style="fill:#917c6f;fill-opacity:1;stroke:#000000;stroke-width:0.208387;stroke-linecap:square;stroke-miterlimit:4;stroke-dasharray:none;stroke-opacity:1;paint-order:markers stroke fill"
             d="m 56.926226,14.398792 c 0.147287,0.390464 -0.02387,0.756312 -0.653025,1.311119 -0.129738,0.114408 -0.282738,0.0062 -0.420859,-0.06238 -0.121133,-0.06019 -0.05204,-0.222338 -0.0301,-0.432016 0.01259,-0.120307 0.0829,-0.465616 0.01928,-0.506448 -0.07347,-0.04715 -0.247344,-0.265423 -0.338176,-0.143043 -0.11527,0.155301 -0.100809,0.325345 -0.235961,0.375101 -0.135152,0.04976 -0.447581,-0.261066 -0.410319,-0.426932 0.02522,-0.112244 0.225686,-0.463062 0.477879,-0.604094 0.245382,-0.137219 0.592997,-0.169564 0.693825,-0.202517 0.357577,-0.116908 0.730976,0.249886 0.897455,0.691215 z"
             sodipodi:nodetypes="sssssszssss" />
          <path
             style="fill:#917c6f;fill-opacity:1;stroke:#000000;stroke-width:0.150929;stroke-linecap:butt;stroke-linejoin:miter;stroke-miterlimit:4;stroke-dasharray:none;stroke-opacity:1"
             d="m 56.393931,15.688353 0.0979,-0.551587 v 0"
             id="path1529-9-7-5-5" />
        </g>
        <path
           style="fill:#917c6f;fill-opacity:1;stroke:#000000;stroke-width:0.0649999;stroke-linecap:butt;stroke-linejoin:miter;stroke-miterlimit:4;stroke-dasharray:none;stroke-opacity:1"
           d="M 44.897117,37.706046 C 44.755288,37.388743 44.73824,37.010184 44.762242,36.611473"
           id="path1968-9"
           sodipodi:nodetypes="cc" />
      </g>
      <g
         id="g2021"
         style="fill:#917c6f;fill-opacity:1"
         transform="matrix(5.7555043,0,0,5.7555043,-233.64431,-129.65448)">
        <g
           id="g1742-7-1-3"
           transform="rotate(5.900964,-170.55953,31.676537)"
           style="fill:#917c6f;fill-opacity:1">
          <path
             id="path839-9-65-0-6-1"
             style="fill:#917c6f;fill-opacity:1;stroke:#000000;stroke-width:0.208387;stroke-linecap:square;stroke-miterlimit:4;stroke-dasharray:none;stroke-opacity:1;paint-order:markers stroke fill"
             d="m 56.926226,14.398792 c 0.147287,0.390464 -0.02387,0.756312 -0.653025,1.311119 -0.129738,0.114408 -0.282738,0.0062 -0.420859,-0.06238 -0.121133,-0.06019 -0.05204,-0.222338 -0.0301,-0.432016 0.01259,-0.120307 0.0829,-0.465616 0.01928,-0.506448 -0.07347,-0.04715 -0.247344,-0.265423 -0.338176,-0.143043 -0.11527,0.155301 -0.100809,0.325345 -0.235961,0.375101 -0.135152,0.04976 -0.447581,-0.261066 -0.410319,-0.426932 0.02522,-0.112244 0.225686,-0.463062 0.477879,-0.604094 0.245382,-0.137219 0.592997,-0.169564 0.693825,-0.202517 0.357577,-0.116908 0.730976,0.249886 0.897455,0.691215 z"
             sodipodi:nodetypes="sssssszssss" />
          <path
             style="fill:#917c6f;fill-opacity:1;stroke:#000000;stroke-width:0.150929;stroke-linecap:butt;stroke-linejoin:miter;stroke-miterlimit:4;stroke-dasharray:none;stroke-opacity:1"
             d="m 56.393931,15.688353 0.0979,-0.551587 v 0"
             id="path1529-9-7-5" />
        </g>
        <path
           style="fill:#917c6f;fill-opacity:1;stroke:#000000;stroke-width:0.065;stroke-linecap:butt;stroke-linejoin:miter;stroke-miterlimit:4;stroke-dasharray:none;stroke-opacity:1"
           d="m 56.329032,38.173566 c 0.141829,-0.317303 0.158877,-0.695862 0.134875,-1.094573"
           id="path1968"
           sodipodi:nodetypes="cc" />
      </g>
      <path
         id="rect856-1-3-8-6-8-8"
         style="fill:#87cdde;fill-opacity:1;stroke:#000000;stroke-width:1.42670855;stroke-linecap:square;stroke-miterlimit:4;stroke-dasharray:none;stroke-opacity:1;paint-order:markers stroke fill"
         d="m 87.135003,84.580575 c -0.10042,1.948367 -0.567949,4.264858 -2.110751,5.458989 -4.506349,2.149059 -7.294628,0.863399 -10.958929,0.863301 -3.66181,-9e-5 -8.05943,1.382808 -10.95146,-0.863301 -1.51848,-1.17932 -1.77312,-3.538411 -1.86239,-5.458989 -0.12335,-2.653382 1.63456,-5.101601 1.86239,-7.748061 0.14773,-1.716382 -0.22821,-3.437912 -0.33135,-5.15755 -0.37072,-6.180341 -1.03339,-18.545601 -1.03339,-18.545601 l 9.47308,-2.740311 h 4.793511 l 9.473059,2.740311 c 0,0 -0.0438,12.365929 -0.224631,18.545601 -0.0507,1.7203 -0.428379,3.44686 -0.23989,5.15755 0.293182,2.66071 2.248522,5.074801 2.110751,7.748061 z"
         sodipodi:nodetypes="acaaaaaccccaaa" />
      <path
         id="path833-8"
         style="fill:#87cdde;fill-opacity:1;stroke:#000000;stroke-width:1.5252;stroke-linecap:square;stroke-miterlimit:4;stroke-dasharray:none;stroke-opacity:1;paint-order:markers stroke fill"
         d="m 95.315943,36.940803 c 0,10.380591 -9.821068,15.753651 -21.93597,15.753641 -12.1149,1e-5 -21.935984,-5.37305 -21.935984,-15.753641 0,-5.04263 0.399376,-12.37369 4.171631,-16.48767 3.993173,-4.3549 11.548023,-5.32365 17.764353,-5.35011 6.39743,-0.0271 14.339669,0.9848 18.333912,5.35011 3.76174,4.11122 3.602058,11.45296 3.602058,16.48767 z"
         sodipodi:nodetypes="ssssass" />
      <path
         id="rect892-5-3-9-1-7-2-7-1-3-9"
         style="fill:#87cdde;fill-opacity:1;stroke:#000000;stroke-width:1.20035;stroke-linecap:square;stroke-miterlimit:4;stroke-dasharray:none;stroke-opacity:1;paint-order:markers stroke fill"
         d="m 52.220822,70.295794 -0.07822,12.896178 c 2.368321,1.960052 3.111938,4.404421 5.992025,0.009 l 1.690926,-13.231429 z"
         sodipodi:nodetypes="ccccc" />
      <path
         id="rect892-5-3-9-1-7-2-77-6-84"
         style="fill:#2c89a0;fill-opacity:1;stroke:#000000;stroke-width:1.20227;stroke-linecap:square;stroke-miterlimit:4;stroke-dasharray:none;stroke-opacity:1;paint-order:markers stroke fill"
         d="m 52.854913,70.260422 c 1.643529,2.354332 3.264504,4.805982 5.77055,3.437861 l 5.86394,-13.277879 c 1.31749,-3.720531 2.32965,-7.113762 -0.75442,-7.30245 -3.08407,-0.188671 -5.273901,0.86404 -6.660037,4.109678 z"
         sodipodi:nodetypes="cccscc" />
      <path
         id="rect892-5-3-9-1-7-2-7-1-3-4-0"
         style="fill:#87cdde;fill-opacity:1;stroke:#000000;stroke-width:1.20035;stroke-linecap:square;stroke-miterlimit:4;stroke-dasharray:none;stroke-opacity:1;paint-order:markers stroke fill"
         d="m 95.937135,70.353124 0.0782,12.896178 c -2.368309,1.960052 -3.111918,4.404411 -5.992008,0.009 l -1.69092,-13.231529 z"
         sodipodi:nodetypes="ccccc" />
      <path
         id="rect892-5-3-9-1-7-2-77-6-8-4"
         style="fill:#2c89a0;fill-opacity:1;stroke:#000000;stroke-width:1.20227;stroke-linecap:square;stroke-miterlimit:4;stroke-dasharray:none;stroke-opacity:1;paint-order:markers stroke fill"
         d="m 95.303042,70.317752 c -1.643539,2.354332 -3.264498,4.805961 -5.770549,3.437861 l -5.863939,-13.2779 c -1.31748,-3.720521 -2.329651,-7.113738 0.754441,-7.302429 3.084049,-0.188722 5.273889,0.864029 6.660009,4.10967 z"
         sodipodi:nodetypes="cccscc" />
    </g>
  </g>
</svg>
