<?xml version="1.0" encoding="UTF-8" standalone="no"?>
<svg
   xmlns:dc="http://purl.org/dc/elements/1.1/"
   xmlns:cc="http://creativecommons.org/ns#"
   xmlns:rdf="http://www.w3.org/1999/02/22-rdf-syntax-ns#"
   xmlns:svg="http://www.w3.org/2000/svg"
   xmlns="http://www.w3.org/2000/svg"
   xmlns:sodipodi="http://sodipodi.sourceforge.net/DTD/sodipodi-0.dtd"
   xmlns:inkscape="http://www.inkscape.org/namespaces/inkscape"
   width="100.28296"
   height="200"
   viewBox="0 0 26.533199 52.916665"
   version="1.1"
   id="svg123"
   inkscape:version="1.0.1 (0767f8302a, 2020-10-17)"
   sodipodi:docname="walk_front7.svg"
   inkscape:export-filename="/home/karine/escoria-assets-testing/marche_devant/marche_avant.png"
   inkscape:export-xdpi="96"
   inkscape:export-ydpi="96">
  <defs
     id="defs117" />
  <sodipodi:namedview
     id="base"
     pagecolor="#ffffff"
     bordercolor="#666666"
     borderopacity="1.0"
     inkscape:pageopacity="0.0"
     inkscape:pageshadow="2"
     inkscape:zoom="3.5810054"
     inkscape:cx="50.030451"
     inkscape:cy="100.18646"
     inkscape:document-units="mm"
     inkscape:current-layer="layer1"
     inkscape:document-rotation="0"
     showgrid="false"
     inkscape:snap-global="false"
     inkscape:window-width="1848"
     inkscape:window-height="1016"
     inkscape:window-x="72"
     inkscape:window-y="27"
     inkscape:window-maximized="1"
     fit-margin-top="0"
     fit-margin-left="0"
     fit-margin-right="0"
     fit-margin-bottom="0"
     units="px" />
  <metadata
     id="metadata120">
    <rdf:RDF>
      <cc:Work
         rdf:about="">
        <dc:format>image/svg+xml</dc:format>
        <dc:type
           rdf:resource="http://purl.org/dc/dcmitype/StillImage" />
        <dc:title />
      </cc:Work>
    </rdf:RDF>
  </metadata>
  <g
     inkscape:label="Calque 1"
     inkscape:groupmode="layer"
     id="layer1"
     transform="translate(-46.286056,-774.866)">
    <g
       id="g1025"
       transform="matrix(0.45749223,0,0,0.45749223,-166.90964,769.94543)">
      <path
         id="rect856-1-3-8-6-8-3-0-5"
         style="fill:#87cdde;fill-opacity:1;stroke:#000000;stroke-width:1.4317183;stroke-linecap:square;stroke-miterlimit:4;stroke-dasharray:none;stroke-opacity:1;paint-order:markers stroke fill"
         d="m 481.66573,80.996265 c 0.10042,1.94836 0.56795,4.264861 2.11076,5.458981 4.50634,2.14907 7.29462,0.86341 10.95893,0.863309 3.6618,-1.01e-4 8.05942,1.38281 10.95147,-0.863309 1.51846,-1.179319 1.77311,-3.53841 1.86237,-5.458981 0.12333,-2.65339 -1.63456,-5.101609 -1.86237,-7.748069 -0.14775,-1.716381 0.22819,-3.437911 0.33133,-5.157542 0.37072,-6.180349 1.03341,-18.545611 1.03341,-18.545611 l -9.4731,-2.740303 h -4.7935 l -9.47307,2.740303 c 0,0 0.0438,12.365942 0.22464,18.545611 0.0507,1.7203 0.42838,3.446852 0.23989,5.157542 -0.29319,2.660711 -2.24853,5.074801 -2.11076,7.748069 z"
         sodipodi:nodetypes="acaaaaaccccaaa" />
      <path
         id="path833-6-2-61"
         style="fill:#87cdde;fill-opacity:1;stroke:#000000;stroke-width:1.52521;stroke-linecap:square;stroke-miterlimit:4;stroke-dasharray:none;stroke-opacity:1;paint-order:markers stroke fill"
         d="m 473.48479,33.356483 c 0,10.380588 9.82108,15.753648 21.93598,15.753648 12.11489,0 21.93598,-5.37306 21.93598,-15.753648 0,-5.04263 -0.39937,-12.373693 -4.17163,-16.48766 -3.99318,-4.354903 -11.54803,-5.323656 -17.76435,-5.350119 -6.39744,-0.02722 -14.33968,0.984811 -18.33392,5.350119 -3.76173,4.111209 -3.60206,11.452958 -3.60206,16.48766 z"
         sodipodi:nodetypes="ssssass" />
      <path
         id="rect892-5-0-2-3-2-6-7-3-1"
         style="fill:#917c6f;fill-opacity:1;stroke:#000000;stroke-width:1.32993;stroke-linecap:square;stroke-miterlimit:4;stroke-dasharray:none;stroke-opacity:1;paint-order:markers stroke fill"
         d="m 498.28434,105.18081 c 0,0 6.82795,7.15959 8.75513,11.01748 1.92717,3.85789 -5.06801,4.4824 -8.69498,2.25873 -3.62701,-2.22362 -5.71253,-9.9612 -2.73198,-13.41821 0.58238,-0.67548 2.67183,0.142 2.67183,0.142 z"
         sodipodi:nodetypes="czzac" />
      <path
         id="path833-5-4-3-0-7-5-7-5"
         style="fill:#dcf3f9;fill-opacity:1;stroke:#000000;stroke-width:1.52521;stroke-linecap:square;stroke-miterlimit:4;stroke-dasharray:none;stroke-opacity:1;paint-order:markers stroke fill"
         d="m 503.89725,42.09585 c 10.22181,-1.264203 12.6514,-5.600906 8.56687,-14.65082 -4.08455,-9.049915 -6.29595,-10.975563 -17.30406,-11.033532 -11.00812,-0.05796 -13.35372,2.174577 -16.65268,11.241604 -3.29897,9.067026 -2.99773,12.771851 7.22407,14.036049 1.54477,0.191042 6.97711,-3.404013 8.73778,-3.577458 1.76066,-0.173442 7.88324,4.17521 9.42802,3.984157 z"
         sodipodi:nodetypes="szzzszs" />
      <path
         id="rect875-9-1-1-3-5-9"
         style="fill:#87cdde;fill-opacity:1;stroke:#000000;stroke-width:1.32815;stroke-linecap:square;stroke-miterlimit:4;stroke-dasharray:none;stroke-opacity:1;paint-order:markers stroke fill"
         d="m 495.97919,103.69214 c 0,0 4.18299,-2.97034 5.56221,-4.026858 1.3791,-1.05669 2.95663,-1.77431 2.95663,-1.77431 2.11112,0.21562 4.35409,0.19032 5.4972,2.174548 0.73797,2.27225 -1.08279,4.53594 -1.90074,5.41338 -0.81795,0.87742 -1.89366,0.74039 -3.55214,1.26376 -1.6581,0.52427 -6.90858,0.85164 -6.90858,0.85164 -1.05721,-0.70571 -2.08115,-2.454 -1.65459,-3.90212 z"
         sodipodi:nodetypes="czcczzccc" />
      <path
         id="rect875-9-1-1-5-5-9-8"
         style="fill:#2c89a0;fill-opacity:1;stroke:#000000;stroke-width:1.52521;stroke-linecap:square;stroke-miterlimit:4;stroke-dasharray:none;stroke-opacity:1;paint-order:markers stroke fill"
         d="m 506.11331,100.90344 c 0,0 -4.4049,-4.882518 -5.95549,-6.48091 -1.55079,-1.598192 -2.69947,-3.499564 -2.69947,-3.499564 -0.0402,-2.719716 -0.40666,-5.571398 1.94901,-7.322386 2.78276,-1.278144 5.93597,0.702381 7.17489,1.612913 1.23893,0.910556 1.22476,2.300449 2.13826,4.333796 0.91457,2.032732 2.11385,8.668173 2.11385,8.668173 -0.74094,1.45104 -2.81392,3.015198 -4.72106,2.687978 z"
         sodipodi:nodetypes="czcczzccc" />
      <path
         id="rect892-5-0-2-3-2-6-6-61-4"
         style="fill:#917c6f;fill-opacity:1;stroke:#000000;stroke-width:1.52521;stroke-linecap:square;stroke-miterlimit:4;stroke-dasharray:none;stroke-opacity:1;paint-order:markers stroke fill"
         d="m 488.61117,113.9762 c 0,0 -11.27272,1.28923 -15.80401,3.271 -4.53128,1.98177 1.17034,7.67056 5.99804,8.3767 4.82771,0.70621 12.26327,-9.80999 12.26327,-9.80999 z"
         sodipodi:nodetypes="czzcc" />
      <path
         id="rect875-9-1-1-1-2-2-8"
         style="fill:#87cdde;fill-opacity:1;stroke:#000000;stroke-width:1.43184;stroke-linecap:square;stroke-miterlimit:4;stroke-dasharray:none;stroke-opacity:1;paint-order:markers stroke fill"
         d="m 491.77236,113.79827 c 0,0 -1.9509,-5.70584 -2.55273,-7.65816 -0.60159,-1.95239 -1.55373,-3.73379 -1.55373,-3.73379 -1.90619,-1.302 -3.79472,-2.919358 -5.83053,-1.90612 -1.84706,1.56621 -1.5196,4.94305 -1.29753,6.33168 0.2221,1.38863 1.20804,2.027 2.33314,3.68728 1.12436,1.66081 5.40103,5.69351 5.40103,5.69351 1.27584,0.10195 3.08382,-0.77878 3.50033,-2.4144 z"
         sodipodi:nodetypes="czcczzccc" />
      <path
         id="rect875-9-1-1-5-9-9-8-1"
         style="fill:#2c89a0;fill-opacity:1;stroke:#000000;stroke-width:1.58391;stroke-linecap:square;stroke-miterlimit:4;stroke-dasharray:none;stroke-opacity:1;paint-order:markers stroke fill"
         d="m 479.41376,100.0175 c 0,0 1.342,-6.999489 1.71717,-9.382247 0.37489,-2.382796 1.23236,-4.631815 1.23236,-4.631815 2.17385,-1.86845 4.26147,-4.100481 7.06846,-3.299817 2.67733,1.478934 2.94049,5.467755 2.93695,7.124298 -0.004,1.656543 -1.13503,2.582217 -2.23814,4.722408 -1.10202,2.140655 -5.75484,7.625753 -5.75484,7.625753 -1.61035,0.35549 -4.09933,-0.33337 -4.96201,-2.15859 z"
         sodipodi:nodetypes="czcczzccc" />
      <path
         id="path833-6-9-66-6-9-0"
         style="fill:#87cdde;fill-opacity:1;stroke:#000000;stroke-width:1.347;stroke-linecap:square;stroke-miterlimit:4;stroke-dasharray:none;stroke-opacity:1;paint-order:markers stroke fill"
         d="m 514.15999,63.958403 c -1.62324,1.714931 -0.86145,3.850634 2.34464,5.261692 2.31615,1.019378 4.21239,0.894558 5.69526,-0.864169 1.12918,-1.339274 2.45105,-4.458285 -1.69763,-6.444613 -3.06909,-1.469435 -4.82748,0.446733 -6.34227,2.04709 z"
         sodipodi:nodetypes="sssss" />
      <path
         id="rect892-5-3-9-1-7-2-77-6-9-7-3"
         style="fill:#2c89a0;fill-opacity:1;stroke:#000000;stroke-width:1.20227;stroke-linecap:square;stroke-miterlimit:4;stroke-dasharray:none;stroke-opacity:1;paint-order:markers stroke fill"
         d="m 520.18583,61.044419 c -0.40811,2.842104 -0.75229,5.760943 -3.60592,5.667055 l -11.2122,-9.218171 c -2.85093,-2.729526 -5.28191,-5.304165 -2.61274,-6.860645 2.66917,-1.556481 5.09849,-1.60192 7.797,0.672629 z"
         sodipodi:nodetypes="cccscc" />
      <path
         id="rect892-5-3-9-1-7-2-7-1-3-0-3-0"
         style="fill:#87cdde;fill-opacity:1;stroke:#000000;stroke-width:1.20035;stroke-linecap:square;stroke-miterlimit:4;stroke-dasharray:none;stroke-opacity:1;paint-order:markers stroke fill"
         d="m 518.70897,70.167578 -12.72472,-2.097429 c -1.53266,-2.66492 -3.81663,-3.810045 1.00148,-5.907741 l 13.32712,0.564311 c 0.92881,4.282353 0.20965,6.535407 -1.60388,7.440859 z"
         sodipodi:nodetypes="ccccc" />
      <g
         id="g1742-7-1-6-4"
         transform="matrix(-4.8041491,3.1695398,-3.1695398,-4.8041491,818.29689,-44.234959)"
         style="fill:#917c6f;fill-opacity:1">
        <path
           id="path839-9-65-0-6-2-1-4"
           style="fill:#917c6f;fill-opacity:1;stroke:#000000;stroke-width:0.208387;stroke-linecap:square;stroke-miterlimit:4;stroke-dasharray:none;stroke-opacity:1;paint-order:markers stroke fill"
           d="m 56.926226,14.398792 c 0.147287,0.390464 -0.02387,0.756312 -0.653025,1.311119 -0.129738,0.114408 -0.282738,0.0062 -0.420859,-0.06238 -0.121133,-0.06019 -0.172281,-0.167148 -0.150341,-0.376826 0.01259,-0.120307 0.01769,-0.118881 -0.09183,-0.412455 -0.08823,-0.236495 0.02591,-0.104051 -0.06492,0.01833 -0.11527,0.155301 0.154217,0.199208 0.07308,0.315118 -0.278144,0.397355 -0.668562,-0.298675 -0.689267,-0.590828 -0.01815,-0.25611 0.153678,-0.549738 0.405871,-0.69077 0.245382,-0.137219 0.592997,-0.169564 0.693825,-0.202517 0.357577,-0.116908 0.730976,0.249886 0.897455,0.691215 z"
           sodipodi:nodetypes="ssssssssssss" />
        <path
           style="fill:#917c6f;fill-opacity:1;stroke:#000000;stroke-width:0.150929;stroke-linecap:butt;stroke-linejoin:miter;stroke-miterlimit:4;stroke-dasharray:none;stroke-opacity:1"
           d="m 56.393931,15.688353 0.0979,-0.551587 v 0"
           id="path1529-9-7-7-2-4" />
      </g>
      <g
         id="g1742-7-6-3-9-4"
         transform="matrix(-5.3947658,2.0055754,2.0055754,5.3947658,744.83497,-111.57308)"
         style="fill:#917c6f;fill-opacity:1">
        <path
           id="path839-9-65-0-6-3-6-3-76"
           style="fill:#917c6f;fill-opacity:1;stroke:#000000;stroke-width:0.208387;stroke-linecap:square;stroke-miterlimit:4;stroke-dasharray:none;stroke-opacity:1;paint-order:markers stroke fill"
           d="m 56.926226,14.398792 c 0.147287,0.390464 -0.02387,0.756312 -0.653025,1.311119 -0.129738,0.114408 -0.282738,0.0062 -0.420859,-0.06238 -0.121133,-0.06019 -0.05204,-0.222338 -0.0301,-0.432016 0.01259,-0.120307 0.0829,-0.465616 0.01928,-0.506448 -0.07347,-0.04715 -0.247344,-0.265423 -0.338176,-0.143043 -0.11527,0.155301 -0.100809,0.325345 -0.235961,0.375101 -0.135152,0.04976 -0.447581,-0.261066 -0.410319,-0.426932 0.02522,-0.112244 0.225686,-0.463062 0.477879,-0.604094 0.245382,-0.137219 0.592997,-0.169564 0.693825,-0.202517 0.357577,-0.116908 0.730976,0.249886 0.897455,0.691215 z"
           sodipodi:nodetypes="sssssszssss" />
        <path
           style="fill:#917c6f;fill-opacity:1;stroke:#000000;stroke-width:0.150929;stroke-linecap:butt;stroke-linejoin:miter;stroke-miterlimit:4;stroke-dasharray:none;stroke-opacity:1"
           d="m 56.393931,15.688353 0.0979,-0.551587 v 0"
           id="path1529-9-7-9-0-1-3" />
      </g>
      <path
         id="rect892-5-3-9-1-7-2-7-1-3-4-6-9-1"
         style="fill:#87cdde;fill-opacity:1;stroke:#000000;stroke-width:1.10738;stroke-linecap:square;stroke-miterlimit:4;stroke-dasharray:none;stroke-opacity:1;paint-order:markers stroke fill"
         d="m 472.67557,63.115752 -3.56007,11.218685 c 1.58849,2.332578 1.59227,4.658919 5.3586,1.587463 l 5.0937,-11.085711 z"
         sodipodi:nodetypes="ccccc" />
      <path
         id="rect892-5-3-9-1-7-2-77-6-8-2-4-7"
         style="fill:#2c89a0;fill-opacity:1;stroke:#000000;stroke-width:1.20227;stroke-linecap:square;stroke-miterlimit:4;stroke-dasharray:none;stroke-opacity:1;paint-order:markers stroke fill"
         d="m 471.69797,65.026909 c 1.15647,2.628056 2.27198,5.3472 4.99554,4.49031 l 8.32431,-11.890896 c 2.01308,-3.394954 3.66321,-6.527925 0.67406,-7.310305 -2.98911,-0.782384 -5.34138,-0.173668 -7.32983,2.742083 z"
         sodipodi:nodetypes="cccscc" />
      <g
         id="g1831-1-6-7-59"
         transform="matrix(-5.7555043,0,0,5.7555043,725.43858,4.0283538)">
        <ellipse
           style="fill:#000000;fill-opacity:1;stroke:none;stroke-width:0.264583;stroke-linecap:square;paint-order:markers stroke fill"
           id="path1506-2-1-8-6"
           cx="38.381142"
           cy="-5.9677148"
           rx="0.32414216"
           ry="0.60453153"
           transform="rotate(15.178085)" />
        <ellipse
           style="fill:#ffffff;fill-opacity:1;stroke:none;stroke-width:0.114344;stroke-linecap:square;stroke-miterlimit:4;stroke-dasharray:none;paint-order:markers stroke fill"
           id="path1541-9-8-4-2"
           cx="38.683216"
           cy="3.985327"
           rx="0.1751774"
           ry="0.13245632" />
      </g>
      <g
         id="g1868-7-5-1"
         transform="matrix(-5.7555043,0,0,5.7555043,802.24663,3.7057278)">
        <ellipse
           style="fill:#000000;fill-opacity:1;stroke:none;stroke-width:0.264583;stroke-linecap:square;paint-order:markers stroke fill"
           id="path1506-9-9-0-7"
           cx="-51.936562"
           cy="18.566008"
           rx="0.32414216"
           ry="0.60453153"
           transform="matrix(-0.96511671,0.26182005,0.26182005,0.96511671,0,0)" />
        <ellipse
           style="fill:#ffffff;fill-opacity:1;stroke:none;stroke-width:0.114344;stroke-linecap:square;stroke-miterlimit:4;stroke-dasharray:none;paint-order:markers stroke fill"
           id="path1541-0-2-3-8"
           cx="54.953251"
           cy="4.0182381"
           rx="0.1751774"
           ry="0.13245632" />
      </g>
    </g>
  </g>
</svg>
