<?xml version="1.0" encoding="UTF-8" standalone="no"?>
<svg
   xmlns:dc="http://purl.org/dc/elements/1.1/"
   xmlns:cc="http://creativecommons.org/ns#"
   xmlns:rdf="http://www.w3.org/1999/02/22-rdf-syntax-ns#"
   xmlns:svg="http://www.w3.org/2000/svg"
   xmlns="http://www.w3.org/2000/svg"
   xmlns:sodipodi="http://sodipodi.sourceforge.net/DTD/sodipodi-0.dtd"
   xmlns:inkscape="http://www.inkscape.org/namespaces/inkscape"
   width="109.37212"
   height="200"
   viewBox="0 0 28.938039 52.916665"
   version="1.1"
   id="svg123"
   inkscape:version="1.0.1 (0767f8302a, 2020-10-17)"
   sodipodi:docname="walk_front6.svg"
   inkscape:export-filename="/home/karine/escoria-assets-testing/marche_devant/marche_avant.png"
   inkscape:export-xdpi="96"
   inkscape:export-ydpi="96">
  <defs
     id="defs117" />
  <sodipodi:namedview
     id="base"
     pagecolor="#ffffff"
     bordercolor="#666666"
     borderopacity="1.0"
     inkscape:pageopacity="0.0"
     inkscape:pageshadow="2"
     inkscape:zoom="3.3217383"
     inkscape:cx="56.105694"
     inkscape:cy="92.37735"
     inkscape:document-units="mm"
     inkscape:current-layer="layer1"
     inkscape:document-rotation="0"
     showgrid="false"
     inkscape:snap-global="false"
     inkscape:window-width="1848"
     inkscape:window-height="1016"
     inkscape:window-x="72"
     inkscape:window-y="27"
     inkscape:window-maximized="1"
     fit-margin-top="0"
     fit-margin-left="0"
     fit-margin-right="0"
     fit-margin-bottom="0"
     units="px" />
  <metadata
     id="metadata120">
    <rdf:RDF>
      <cc:Work
         rdf:about="">
        <dc:format>image/svg+xml</dc:format>
        <dc:type
           rdf:resource="http://purl.org/dc/dcmitype/StillImage" />
        <dc:title />
      </cc:Work>
    </rdf:RDF>
  </metadata>
  <g
     inkscape:label="Calque 1"
     inkscape:groupmode="layer"
     id="layer1"
     transform="translate(-43.663811,-649.1386)">
    <g
       id="g968"
       transform="matrix(0.45757962,0,0,0.45757962,-134.82049,643.34068)">
      <path
         id="rect856-1-3-8-6-8-3-9"
         style="fill:#87cdde;fill-opacity:1;stroke:#000000;stroke-width:1.43144487;stroke-linecap:square;stroke-miterlimit:4;stroke-dasharray:none;stroke-opacity:1;paint-order:markers stroke fill"
         d="m 410.96253,82.911584 c 0.10042,1.94836 0.56794,4.264861 2.11075,5.458981 4.50635,2.14907 7.29462,0.86341 10.95893,0.863309 3.6618,-1.01e-4 8.05942,1.38281 10.95147,-0.863309 1.51846,-1.179319 1.77311,-3.53841 1.86237,-5.458981 0.12333,-2.65339 -1.63456,-5.101609 -1.86237,-7.748069 -0.14775,-1.716381 0.22819,-3.437911 0.33133,-5.157542 0.37072,-6.180349 1.03341,-18.545611 1.03341,-18.545611 l -9.4731,-2.740303 h -4.79349 l -9.47307,2.740303 c 0,0 0.0438,12.365942 0.22463,18.545611 0.0507,1.7203 0.42838,3.446852 0.23989,5.157542 -0.29319,2.660711 -2.24853,5.074801 -2.11075,7.748069 z"
         sodipodi:nodetypes="acaaaaaccccaaa" />
      <path
         id="path833-6-1"
         style="fill:#87cdde;fill-opacity:1;stroke:#000000;stroke-width:1.52521;stroke-linecap:square;stroke-miterlimit:4;stroke-dasharray:none;stroke-opacity:1;paint-order:markers stroke fill"
         d="m 402.78159,35.271802 c 0,10.380588 9.82107,15.753648 21.93597,15.753648 12.11489,0 21.93598,-5.37306 21.93598,-15.753648 0,-5.04263 -0.39937,-12.373692 -4.17163,-16.487658 -3.99318,-4.354904 -11.54803,-5.323657 -17.76435,-5.35012 -6.39743,-0.02722 -14.33968,0.984811 -18.33392,5.35012 -3.76173,4.111208 -3.60205,11.452956 -3.60205,16.487658 z"
         sodipodi:nodetypes="ssssass" />
      <path
         id="rect892-5-0-2-3-2-6-7-7"
         style="fill:#917c6f;fill-opacity:1;stroke:#000000;stroke-width:1.32993;stroke-linecap:square;stroke-miterlimit:4;stroke-dasharray:none;stroke-opacity:1;paint-order:markers stroke fill"
         d="m 427.73488,111.44099 c 0,0 6.82795,7.15959 8.75513,11.01748 1.92717,3.85789 -5.06801,4.4824 -8.69498,2.25873 -3.627,-2.22362 -5.71252,-9.9612 -2.73197,-13.41821 0.58237,-0.67548 2.67182,0.142 2.67182,0.142 z"
         sodipodi:nodetypes="czzac" />
      <path
         id="path833-5-4-3-0-7-5-71"
         style="fill:#dcf3f9;fill-opacity:1;stroke:#000000;stroke-width:1.52521;stroke-linecap:square;stroke-miterlimit:4;stroke-dasharray:none;stroke-opacity:1;paint-order:markers stroke fill"
         d="m 433.19404,44.011169 c 10.22181,-1.2642 12.6514,-5.600906 8.56687,-14.650819 -4.08455,-9.049914 -6.29595,-10.975563 -17.30405,-11.033531 -11.00812,-0.05796 -13.35372,2.174577 -16.65269,11.241602 -3.29896,9.067026 -2.99773,12.771851 7.22408,14.036052 1.54477,0.191039 6.97711,-3.404016 8.73778,-3.577461 1.76065,-0.173439 7.88323,4.17521 9.42801,3.984157 z"
         sodipodi:nodetypes="szzzszs" />
      <path
         id="rect875-9-1-1-3-1"
         style="fill:#87cdde;fill-opacity:1;stroke:#000000;stroke-width:1.32815;stroke-linecap:square;stroke-miterlimit:4;stroke-dasharray:none;stroke-opacity:1;paint-order:markers stroke fill"
         d="m 424.19657,110.83817 c 0,0 2.77945,-4.31218 3.66723,-5.80561 0.8876,-1.49355 2.08544,-2.74605 2.08544,-2.74605 2.04004,-0.58442 4.11295,-1.4415 5.91162,-0.0242 1.52959,1.83523 0.68055,4.61346 0.24728,5.73205 -0.43327,1.11856 -1.48286,1.39113 -2.82803,2.49338 -1.3445,1.10295 -6.09724,3.3582 -6.09724,3.3582 -1.24376,-0.26225 -2.84411,-1.50477 -2.98629,-3.00769 z"
         sodipodi:nodetypes="czcczzccc" />
      <path
         id="rect875-9-1-1-5-5-5"
         style="fill:#2c89a0;fill-opacity:1;stroke:#000000;stroke-width:1.52521;stroke-linecap:square;stroke-miterlimit:4;stroke-dasharray:none;stroke-opacity:1;paint-order:markers stroke fill"
         d="m 432.18556,103.932 c 0,0 -3.26604,-5.707452 -4.44132,-7.598982 -1.17552,-1.891382 -1.89366,-3.99351 -1.89366,-3.99351 0.53904,-2.666071 0.78724,-5.530474 3.46135,-6.740554 2.99089,-0.657241 5.65089,1.948442 6.66789,3.101576 1.01699,1.153157 0.70762,2.508257 1.1679,4.689342 0.46145,2.180709 0.22247,8.919428 0.22247,8.919428 -1.03252,1.26031 -3.39068,2.34795 -5.18464,1.62271 z"
         sodipodi:nodetypes="czcczzccc" />
      <path
         id="rect875-9-1-1-1-2-9"
         style="fill:#87cdde;fill-opacity:1;stroke:#000000;stroke-width:1.43184;stroke-linecap:square;stroke-miterlimit:4;stroke-dasharray:none;stroke-opacity:1;paint-order:markers stroke fill"
         d="m 420.63939,122.65202 c 0,0 -0.29216,-6.02306 -0.32902,-8.06571 -0.0366,-2.04264 -0.45742,-4.01821 -0.45742,-4.01821 -1.47039,-1.77952 -2.83636,-3.85714 -5.0733,-3.44816 -2.20894,0.99259 -2.83072,4.32779 -3.00242,5.72355 -0.17168,1.39576 0.59858,2.2825 1.21916,4.18966 0.61971,1.90746 3.61039,6.96794 3.61039,6.96794 1.19755,0.45174 3.17885,0.1069 4.03258,-1.34907 z"
         sodipodi:nodetypes="czcczzccc" />
      <path
         id="rect892-5-0-2-3-2-6-6-6-7"
         style="fill:#917c6f;fill-opacity:1;stroke:#000000;stroke-width:1.52521;stroke-linecap:square;stroke-miterlimit:4;stroke-dasharray:none;stroke-opacity:1;paint-order:markers stroke fill"
         d="m 420.32195,123.77678 c 0,0 -6.34303,-9.40758 -10.19131,-12.51413 -3.84828,-3.10654 -6.26624,4.57617 -4.6662,9.18543 1.59996,4.60929 9.75545,8.84628 14.36025,6.35662 0.89974,-0.48647 0.49726,-3.02792 0.49726,-3.02792 z"
         sodipodi:nodetypes="czzac" />
      <path
         id="rect875-9-1-1-5-9-9-7"
         style="fill:#2c89a0;fill-opacity:1;stroke:#000000;stroke-width:1.58391;stroke-linecap:square;stroke-miterlimit:4;stroke-dasharray:none;stroke-opacity:1;paint-order:markers stroke fill"
         d="m 412.77904,105.79713 c 0,0 -0.56452,-7.104587 -0.83543,-9.501437 -0.27119,-2.396813 -0.0416,-4.792774 -0.0416,-4.792774 1.59977,-2.378548 3.01988,-5.08473 5.9387,-5.058052 2.97389,0.715036 4.28663,4.490836 4.72302,6.088869 0.43636,1.598044 -0.40872,2.790891 -0.90403,5.147149 -0.49413,2.356415 -3.52369,8.879975 -3.52369,8.879975 -1.45817,0.77027 -4.04071,0.76695 -5.35702,-0.76373 z"
         sodipodi:nodetypes="czcczzccc" />
      <path
         id="path833-6-9-66-6-6"
         style="fill:#87cdde;fill-opacity:1;stroke:#000000;stroke-width:1.347;stroke-linecap:square;stroke-miterlimit:4;stroke-dasharray:none;stroke-opacity:1;paint-order:markers stroke fill"
         d="m 443.45678,65.873722 c -1.62324,1.714931 -0.86145,3.850634 2.34464,5.261692 2.31615,1.019378 4.21239,0.894561 5.69526,-0.864169 1.12918,-1.339274 2.45105,-4.458285 -1.69763,-6.444613 -3.06908,-1.469432 -4.82748,0.446733 -6.34227,2.04709 z"
         sodipodi:nodetypes="sssss" />
      <path
         id="rect892-5-3-9-1-7-2-77-6-9-73"
         style="fill:#2c89a0;fill-opacity:1;stroke:#000000;stroke-width:1.20227;stroke-linecap:square;stroke-miterlimit:4;stroke-dasharray:none;stroke-opacity:1;paint-order:markers stroke fill"
         d="m 449.48262,62.959741 c -0.40811,2.842104 -0.75229,5.76094 -3.60592,5.667052 l -11.2122,-9.218171 c -2.85093,-2.729523 -5.28191,-5.304165 -2.61274,-6.860645 2.66917,-1.556481 5.09849,-1.601917 7.797,0.672629 z"
         sodipodi:nodetypes="cccscc" />
      <path
         id="rect892-5-3-9-1-7-2-7-1-3-0-6"
         style="fill:#87cdde;fill-opacity:1;stroke:#000000;stroke-width:1.20035;stroke-linecap:square;stroke-miterlimit:4;stroke-dasharray:none;stroke-opacity:1;paint-order:markers stroke fill"
         d="m 445.65512,71.067897 -11.2652,-6.27798 c -0.54089,-3.026259 -2.30289,-4.876448 2.94077,-5.220753 l 12.35067,5.038995 c -0.21301,2.969096 -1.15711,5.409909 -4.02624,6.459738 z"
         sodipodi:nodetypes="ccccc" />
      <g
         id="g1742-7-1-5"
         transform="matrix(-4.8041491,3.1695398,-3.1695398,-4.8041491,746.87537,-48.035997)"
         style="fill:#917c6f;fill-opacity:1">
        <path
           id="path839-9-65-0-6-2-6"
           style="fill:#917c6f;fill-opacity:1;stroke:#000000;stroke-width:0.208387;stroke-linecap:square;stroke-miterlimit:4;stroke-dasharray:none;stroke-opacity:1;paint-order:markers stroke fill"
           d="m 56.926226,14.398792 c 0.147287,0.390464 -0.02387,0.756312 -0.653025,1.311119 -0.129738,0.114408 -0.282738,0.0062 -0.420859,-0.06238 -0.121133,-0.06019 -0.172281,-0.167148 -0.150341,-0.376826 0.01259,-0.120307 0.01769,-0.118881 -0.09183,-0.412455 -0.08823,-0.236495 0.02591,-0.104051 -0.06492,0.01833 -0.11527,0.155301 0.154217,0.199208 0.07308,0.315118 -0.278144,0.397355 -0.668562,-0.298675 -0.689267,-0.590828 -0.01815,-0.25611 0.153678,-0.549738 0.405871,-0.69077 0.245382,-0.137219 0.592997,-0.169564 0.693825,-0.202517 0.357577,-0.116908 0.730976,0.249886 0.897455,0.691215 z"
           sodipodi:nodetypes="ssssssssssss" />
        <path
           style="fill:#917c6f;fill-opacity:1;stroke:#000000;stroke-width:0.150929;stroke-linecap:butt;stroke-linejoin:miter;stroke-miterlimit:4;stroke-dasharray:none;stroke-opacity:1"
           d="m 56.393931,15.688353 0.0979,-0.551587 v 0"
           id="path1529-9-7-7-3" />
      </g>
      <g
         id="g1742-7-6-3-94"
         transform="matrix(-5.3947658,2.0055754,2.0055754,5.3947658,668.88727,-113.04464)"
         style="fill:#917c6f;fill-opacity:1">
        <path
           id="path839-9-65-0-6-3-6-8"
           style="fill:#917c6f;fill-opacity:1;stroke:#000000;stroke-width:0.208387;stroke-linecap:square;stroke-miterlimit:4;stroke-dasharray:none;stroke-opacity:1;paint-order:markers stroke fill"
           d="m 56.926226,14.398792 c 0.147287,0.390464 -0.02387,0.756312 -0.653025,1.311119 -0.129738,0.114408 -0.282738,0.0062 -0.420859,-0.06238 -0.121133,-0.06019 -0.05204,-0.222338 -0.0301,-0.432016 0.01259,-0.120307 0.0829,-0.465616 0.01928,-0.506448 -0.07347,-0.04715 -0.247344,-0.265423 -0.338176,-0.143043 -0.11527,0.155301 -0.100809,0.325345 -0.235961,0.375101 -0.135152,0.04976 -0.447581,-0.261066 -0.410319,-0.426932 0.02522,-0.112244 0.225686,-0.463062 0.477879,-0.604094 0.245382,-0.137219 0.592997,-0.169564 0.693825,-0.202517 0.357577,-0.116908 0.730976,0.249886 0.897455,0.691215 z"
           sodipodi:nodetypes="sssssszssss" />
        <path
           style="fill:#917c6f;fill-opacity:1;stroke:#000000;stroke-width:0.150929;stroke-linecap:butt;stroke-linejoin:miter;stroke-miterlimit:4;stroke-dasharray:none;stroke-opacity:1"
           d="m 56.393931,15.688353 0.0979,-0.551587 v 0"
           id="path1529-9-7-9-0-12" />
      </g>
      <path
         id="rect892-5-3-9-1-7-2-7-1-3-4-6-93"
         style="fill:#87cdde;fill-opacity:1;stroke:#000000;stroke-width:1.20035;stroke-linecap:square;stroke-miterlimit:4;stroke-dasharray:none;stroke-opacity:1;paint-order:markers stroke fill"
         d="m 398.45658,61.302449 -5.70108,11.567848 c 1.27485,2.797421 0.87658,5.321157 5.38676,2.624336 l 7.29835,-11.165303 z"
         sodipodi:nodetypes="ccccc" />
      <path
         id="rect892-5-3-9-1-7-2-77-6-8-2-90"
         style="fill:#2c89a0;fill-opacity:1;stroke:#000000;stroke-width:1.20227;stroke-linecap:square;stroke-miterlimit:4;stroke-dasharray:none;stroke-opacity:1;paint-order:markers stroke fill"
         d="m 397.22845,62.045471 c 0.1939,2.864699 0.31831,5.801127 3.17095,5.921433 l 11.87169,-8.351687 c 3.04755,-2.508112 5.66469,-4.893276 3.11971,-6.645473 -2.54495,-1.752193 -4.96403,-1.979621 -7.82547,0.08622 z"
         sodipodi:nodetypes="cccscc" />
      <g
         id="g1831-1-6-8"
         transform="matrix(-5.7555043,0,0,5.7555043,654.73539,5.9436741)">
        <ellipse
           style="fill:#000000;fill-opacity:1;stroke:none;stroke-width:0.264583;stroke-linecap:square;paint-order:markers stroke fill"
           id="path1506-2-1-85"
           cx="38.381142"
           cy="-5.9677148"
           rx="0.32414216"
           ry="0.60453153"
           transform="rotate(15.178085)" />
        <ellipse
           style="fill:#ffffff;fill-opacity:1;stroke:none;stroke-width:0.114344;stroke-linecap:square;stroke-miterlimit:4;stroke-dasharray:none;paint-order:markers stroke fill"
           id="path1541-9-8-0"
           cx="38.683216"
           cy="3.985327"
           rx="0.1751774"
           ry="0.13245632" />
      </g>
      <g
         id="g1868-7-9"
         transform="matrix(-5.7555043,0,0,5.7555043,731.54343,5.621047)">
        <ellipse
           style="fill:#000000;fill-opacity:1;stroke:none;stroke-width:0.264583;stroke-linecap:square;paint-order:markers stroke fill"
           id="path1506-9-9-6"
           cx="-51.936562"
           cy="18.566008"
           rx="0.32414216"
           ry="0.60453153"
           transform="matrix(-0.96511671,0.26182005,0.26182005,0.96511671,0,0)" />
        <ellipse
           style="fill:#ffffff;fill-opacity:1;stroke:none;stroke-width:0.114344;stroke-linecap:square;stroke-miterlimit:4;stroke-dasharray:none;paint-order:markers stroke fill"
           id="path1541-0-2-38"
           cx="54.953251"
           cy="4.0182381"
           rx="0.1751774"
           ry="0.13245632" />
      </g>
    </g>
  </g>
</svg>
