<?xml version="1.0" encoding="UTF-8" standalone="no"?>
<svg
   xmlns:dc="http://purl.org/dc/elements/1.1/"
   xmlns:cc="http://creativecommons.org/ns#"
   xmlns:rdf="http://www.w3.org/1999/02/22-rdf-syntax-ns#"
   xmlns:svg="http://www.w3.org/2000/svg"
   xmlns="http://www.w3.org/2000/svg"
   xmlns:sodipodi="http://sodipodi.sourceforge.net/DTD/sodipodi-0.dtd"
   xmlns:inkscape="http://www.inkscape.org/namespaces/inkscape"
   width="22.275364mm"
   height="52.916668mm"
   viewBox="0 0 22.275364 52.916668"
   version="1.1"
   id="svg977"
   inkscape:version="1.0.1 (0767f8302a, 2020-10-17)"
   sodipodi:docname="idle_up.svg">
  <defs
     id="defs971" />
  <sodipodi:namedview
     id="base"
     pagecolor="#ffffff"
     bordercolor="#666666"
     borderopacity="1.0"
     inkscape:pageopacity="0.0"
     inkscape:pageshadow="2"
     inkscape:zoom="2.2869151"
     inkscape:cx="35.580956"
     inkscape:cy="86.921352"
     inkscape:document-units="mm"
     inkscape:current-layer="layer1"
     inkscape:document-rotation="0"
     showgrid="false"
     fit-margin-top="0"
     fit-margin-left="0"
     fit-margin-right="0"
     fit-margin-bottom="0"
     inkscape:window-width="1685"
     inkscape:window-height="752"
     inkscape:window-x="122"
     inkscape:window-y="114"
     inkscape:window-maximized="0" />
  <metadata
     id="metadata974">
    <rdf:RDF>
      <cc:Work
         rdf:about="">
        <dc:format>image/svg+xml</dc:format>
        <dc:type
           rdf:resource="http://purl.org/dc/dcmitype/StillImage" />
        <dc:title></dc:title>
      </cc:Work>
    </rdf:RDF>
  </metadata>
  <g
     inkscape:label="Calque 1"
     inkscape:groupmode="layer"
     id="layer1"
     transform="translate(-106.39754,-149.11284)">
    <g
       id="g1531"
       transform="matrix(0.56144871,0,0,0.56144871,74.577109,97.006519)">
      <path
         id="rect892-5-0-2-3-2-6-5-6"
         style="fill:#917c6f;fill-opacity:1;stroke:#000000;stroke-width:1.21161;stroke-linecap:square;stroke-miterlimit:4;stroke-dasharray:none;stroke-opacity:1;paint-order:markers stroke fill"
         d="m 81.133092,183.81326 c 0,0 3.773454,-8.33005 6.366315,-11.29482 2.592868,-2.96478 5.346389,2.91067 4.655471,6.80799 -0.690837,3.89732 -6.40286,8.23648 -10.286536,6.85808 -0.779878,-0.27679 -0.73525,-2.37125 -0.73525,-2.37125 z"
         sodipodi:nodetypes="czzsc" />
      <path
         id="path2040-2"
         style="fill:#917c6f;fill-opacity:1;stroke:#000000;stroke-width:1.23675;stroke-linecap:square;stroke-miterlimit:4;stroke-dasharray:none;stroke-opacity:1;paint-order:markers stroke fill"
         d="m 85.593945,182.62164 c 0,1.90697 -0.528603,3.45286 -2.751345,3.45286 -2.222727,0 -2.450868,-1.74048 -2.450868,-3.64744 0,-1.90697 0.228123,-3.25829 2.450868,-3.25829 2.222742,0 2.751345,1.5459 2.751345,3.45287 z"
         sodipodi:nodetypes="sssss" />
      <path
         id="rect875-9-1-1-1-8"
         style="fill:#87cdde;fill-opacity:1;stroke:#000000;stroke-width:1.07697;stroke-linecap:square;stroke-miterlimit:4;stroke-dasharray:none;stroke-opacity:1;paint-order:markers stroke fill"
         d="m 81.084689,179.22641 c 0,0 -0.893356,-4.06301 -1.245512,-5.42711 -0.352312,-1.36405 -0.388671,-2.76891 -0.388671,-2.76891 0.82924,-1.50777 1.520358,-3.19024 3.363506,-3.4155 1.929933,0.16832 3.04353,2.24417 3.439645,3.13254 0.396091,0.8884 -0.04679,1.64808 -0.180996,3.05187 -0.133471,1.4038 -1.551124,5.42711 -1.551124,5.42711 -0.861535,0.5658 -2.490795,0.77686 -3.436848,0 z"
         sodipodi:nodetypes="czcczzccc" />
      <path
         id="rect875-9-1-1-5-9-5"
         style="fill:#2c89a0;fill-opacity:1;stroke:#000000;stroke-width:1.23675;stroke-linecap:square;stroke-miterlimit:4;stroke-dasharray:none;stroke-opacity:1;paint-order:markers stroke fill"
         d="m 85.164161,167.70029 c 0,0 1.145075,-5.20783 1.596443,-6.95628 0.45158,-1.74839 0.498182,-3.54908 0.498182,-3.54908 -1.062886,-1.93261 -1.948748,-4.08914 -4.311229,-4.37788 -2.473718,0.21579 -3.901085,2.8765 -4.408803,4.01519 -0.507691,1.1387 0.05992,2.11243 0.231995,3.91177 0.171095,1.79933 1.988195,6.95628 1.988195,6.95628 1.104279,0.72522 3.192602,0.99575 4.405217,0 z"
         sodipodi:nodetypes="czcczzccc" />
      <path
         id="rect892-5-0-2-3-2-6-5-3"
         style="fill:#917c6f;fill-opacity:1;stroke:#000000;stroke-width:1.23675;stroke-linecap:square;stroke-miterlimit:4;stroke-dasharray:none;stroke-opacity:1;paint-order:markers stroke fill"
         d="m 73.335313,183.62923 c 0,0 -3.939026,-8.31453 -6.645662,-11.2738 -2.706639,-2.95924 -5.580982,2.90527 -4.859754,6.79532 0.721154,3.89007 6.743066,8.28027 10.737919,6.84532 0.78056,-0.28038 0.767497,-2.36684 0.767497,-2.36684 z"
         sodipodi:nodetypes="czzsc" />
      <path
         id="path2040"
         style="fill:#917c6f;fill-opacity:1;stroke:#000000;stroke-width:1.23676;stroke-linecap:square;stroke-miterlimit:4;stroke-dasharray:none;stroke-opacity:1;paint-order:markers stroke fill"
         d="m 74.519863,182.55939 c 0,1.90699 -0.528596,3.45288 -2.75134,3.45288 -2.222734,0 -2.450867,-1.74048 -2.450867,-3.64744 0,-1.90699 0.228125,-3.2583 2.450867,-3.2583 2.222744,0 2.75134,1.5459 2.75134,3.45286 z"
         sodipodi:nodetypes="sssss" />
      <path
         id="rect875-9-1-1-9"
         style="fill:#87cdde;fill-opacity:1;stroke:#000000;stroke-width:1.07697;stroke-linecap:square;stroke-miterlimit:4;stroke-dasharray:none;stroke-opacity:1;paint-order:markers stroke fill"
         d="m 73.14629,179.22641 c 0,0 0.893354,-4.06301 1.245495,-5.42711 0.352311,-1.36405 0.388671,-2.76891 0.388671,-2.76891 -0.82923,-1.50777 -1.520367,-3.19024 -3.363513,-3.4155 -1.929926,0.16832 -3.043515,2.24417 -3.43963,3.13254 -0.39609,0.8884 0.04679,1.64808 0.18098,3.05187 0.133487,1.4038 1.551132,5.42711 1.551132,5.42711 0.861536,0.5658 2.490788,0.77686 3.436857,0 z"
         sodipodi:nodetypes="czcczzccc" />
      <path
         id="rect875-9-1-1-5-6"
         style="fill:#2c89a0;fill-opacity:1;stroke:#000000;stroke-width:1.23675;stroke-linecap:square;stroke-miterlimit:4;stroke-dasharray:none;stroke-opacity:1;paint-order:markers stroke fill"
         d="m 73.796673,167.70029 c 0,0 1.145067,-5.20783 1.596427,-6.95628 0.451587,-1.74839 0.498188,-3.54908 0.498188,-3.54908 -1.062884,-1.93261 -1.948746,-4.08914 -4.31122,-4.37788 -2.473726,0.21579 -3.901085,2.8765 -4.408809,4.01519 -0.5077,1.1387 0.05992,2.11243 0.232,3.91177 0.171088,1.79933 1.988188,6.95628 1.988188,6.95628 1.10428,0.72522 3.192604,0.99575 4.405226,0 z"
         sodipodi:nodetypes="czcczzccc" />
      <g
         id="g2021"
         style="fill:#917c6f;fill-opacity:1"
         transform="matrix(4.6670216,0,0,4.6670216,-172.59334,-24.081703)">
        <g
           id="g1742-7-1-3"
           transform="rotate(5.900964,-170.55953,31.676537)"
           style="fill:#917c6f;fill-opacity:1">
          <path
             id="path839-9-65-0-6-1"
             style="fill:#917c6f;fill-opacity:1;stroke:#000000;stroke-width:0.208387;stroke-linecap:square;stroke-miterlimit:4;stroke-dasharray:none;stroke-opacity:1;paint-order:markers stroke fill"
             d="m 56.926226,14.398792 c 0.147287,0.390464 -0.02387,0.756312 -0.653025,1.311119 -0.129738,0.114408 -0.282738,0.0062 -0.420859,-0.06238 -0.121133,-0.06019 -0.05204,-0.222338 -0.0301,-0.432016 0.01259,-0.120307 0.0829,-0.465616 0.01928,-0.506448 -0.07347,-0.04715 -0.247344,-0.265423 -0.338176,-0.143043 -0.11527,0.155301 -0.100809,0.325345 -0.235961,0.375101 -0.135152,0.04976 -0.447581,-0.261066 -0.410319,-0.426932 0.02522,-0.112244 0.225686,-0.463062 0.477879,-0.604094 0.245382,-0.137219 0.592997,-0.169564 0.693825,-0.202517 0.357577,-0.116908 0.730976,0.249886 0.897455,0.691215 z"
             sodipodi:nodetypes="sssssszssss" />
          <path
             style="fill:#917c6f;fill-opacity:1;stroke:#000000;stroke-width:0.150929;stroke-linecap:butt;stroke-linejoin:miter;stroke-miterlimit:4;stroke-dasharray:none;stroke-opacity:1"
             d="m 56.393931,15.688353 0.0979,-0.551587 v 0"
             id="path1529-9-7-5" />
        </g>
        <path
           style="fill:#917c6f;fill-opacity:1;stroke:#000000;stroke-width:0.065;stroke-linecap:butt;stroke-linejoin:miter;stroke-miterlimit:4;stroke-dasharray:none;stroke-opacity:1"
           d="m 56.329032,38.173566 c 0.141829,-0.317303 0.158877,-0.695862 0.134875,-1.094573"
           id="path1968"
           sodipodi:nodetypes="cc" />
      </g>
      <g
         id="g2015"
         transform="matrix(4.6670216,0,0,4.6670216,-146.66235,-21.541876)"
         style="fill:#917c6f;fill-opacity:1">
        <g
           id="g1742-7-1-1"
           transform="matrix(-0.99470109,0.10280927,0.10280927,0.99470109,98.842653,17.143715)"
           style="fill:#917c6f;fill-opacity:1">
          <path
             id="path839-9-65-0-6-1-7"
             style="fill:#917c6f;fill-opacity:1;stroke:#000000;stroke-width:0.208387;stroke-linecap:square;stroke-miterlimit:4;stroke-dasharray:none;stroke-opacity:1;paint-order:markers stroke fill"
             d="m 56.926226,14.398792 c 0.147287,0.390464 -0.02387,0.756312 -0.653025,1.311119 -0.129738,0.114408 -0.282738,0.0062 -0.420859,-0.06238 -0.121133,-0.06019 -0.05204,-0.222338 -0.0301,-0.432016 0.01259,-0.120307 0.0829,-0.465616 0.01928,-0.506448 -0.07347,-0.04715 -0.247344,-0.265423 -0.338176,-0.143043 -0.11527,0.155301 -0.100809,0.325345 -0.235961,0.375101 -0.135152,0.04976 -0.447581,-0.261066 -0.410319,-0.426932 0.02522,-0.112244 0.225686,-0.463062 0.477879,-0.604094 0.245382,-0.137219 0.592997,-0.169564 0.693825,-0.202517 0.357577,-0.116908 0.730976,0.249886 0.897455,0.691215 z"
             sodipodi:nodetypes="sssssszssss" />
          <path
             style="fill:#917c6f;fill-opacity:1;stroke:#000000;stroke-width:0.150929;stroke-linecap:butt;stroke-linejoin:miter;stroke-miterlimit:4;stroke-dasharray:none;stroke-opacity:1"
             d="m 56.393931,15.688353 0.0979,-0.551587 v 0"
             id="path1529-9-7-5-5" />
        </g>
        <path
           style="fill:#917c6f;fill-opacity:1;stroke:#000000;stroke-width:0.0649999;stroke-linecap:butt;stroke-linejoin:miter;stroke-miterlimit:4;stroke-dasharray:none;stroke-opacity:1"
           d="M 44.897117,37.706046 C 44.755288,37.388743 44.73824,37.010184 44.762242,36.611473"
           id="path1968-9"
           sodipodi:nodetypes="cc" />
      </g>
      <path
         id="rect856-1-3-8-6-8-8"
         style="fill:#87cdde;fill-opacity:1;stroke:#000000;stroke-width:1.053;stroke-linecap:square;stroke-miterlimit:4;stroke-dasharray:none;stroke-opacity:1;paint-order:markers stroke fill"
         d="m 87.685118,150.02107 c -0.08143,1.57989 -0.460538,3.45828 -1.711565,4.42658 -3.654107,1.74263 -5.915066,0.70011 -8.886374,0.70003 -2.969287,-7e-5 -6.535228,1.12129 -8.880316,-0.70003 -1.231304,-0.95629 -1.437787,-2.86923 -1.510174,-4.42658 -0.100022,-2.15158 1.325431,-4.13679 1.510174,-6.28275 0.119791,-1.39178 -0.185051,-2.78773 -0.268685,-4.18215 -0.300609,-5.01152 -0.837955,-15.03826 -0.837955,-15.03826 l 7.681529,-2.22206 h 3.88696 l 7.681512,2.22206 c 0,0 -0.03551,10.02729 -0.182149,15.03826 -0.04111,1.39496 -0.347364,2.79499 -0.194522,4.18215 0.237735,2.15752 1.823281,4.11505 1.711565,6.28275 z"
         sodipodi:nodetypes="acaaaaaccccaaa" />
      <path
         id="rect892-5-3-9-1-7-2-7-1-3-9"
         style="fill:#87cdde;fill-opacity:1;stroke:#000000;stroke-width:0.973341;stroke-linecap:square;stroke-miterlimit:4;stroke-dasharray:none;stroke-opacity:1;paint-order:markers stroke fill"
         d="m 59.208888,138.05391 -0.06342,10.45725 c 1.920423,1.58937 2.523407,3.57146 4.858811,0.007 l 1.371138,-10.7291 z"
         sodipodi:nodetypes="ccccc" />
      <path
         id="rect892-5-3-9-1-7-2-77-6-84"
         style="fill:#2c89a0;fill-opacity:1;stroke:#000000;stroke-width:0.974893;stroke-linecap:square;stroke-miterlimit:4;stroke-dasharray:none;stroke-opacity:1;paint-order:markers stroke fill"
         d="m 59.723059,138.02523 c 1.332705,1.90908 2.647121,3.89707 4.679223,2.78769 l 4.754949,-10.76676 c 1.068326,-3.01691 1.889066,-5.76841 -0.611743,-5.92141 -2.50081,-0.15299 -4.2765,0.70063 -5.400489,3.33245 z"
         sodipodi:nodetypes="cccscc" />
      <path
         id="rect892-5-3-9-1-7-2-7-1-3-4-0"
         style="fill:#87cdde;fill-opacity:1;stroke:#000000;stroke-width:0.973341;stroke-linecap:square;stroke-miterlimit:4;stroke-dasharray:none;stroke-opacity:1;paint-order:markers stroke fill"
         d="m 94.657559,138.1004 0.06341,10.45725 c -1.920413,1.58936 -2.523391,3.57145 -4.858797,0.007 L 88.491039,137.8358 Z"
         sodipodi:nodetypes="ccccc" />
      <path
         id="rect892-5-3-9-1-7-2-77-6-8-4"
         style="fill:#2c89a0;fill-opacity:1;stroke:#000000;stroke-width:0.974893;stroke-linecap:square;stroke-miterlimit:4;stroke-dasharray:none;stroke-opacity:1;paint-order:markers stroke fill"
         d="m 94.143386,138.07172 c -1.332712,1.90908 -2.647115,3.89705 -4.679221,2.78769 l -4.754949,-10.76678 c -1.068318,-3.01689 -1.889067,-5.76839 0.611761,-5.92139 2.500792,-0.15303 4.276489,0.70062 5.400466,3.33245 z"
         sodipodi:nodetypes="cccscc" />
      <path
         id="path833-8"
         style="fill:#87cdde;fill-opacity:1;stroke:#000000;stroke-width:1.23675;stroke-linecap:square;stroke-miterlimit:4;stroke-dasharray:none;stroke-opacity:1;paint-order:markers stroke fill"
         d="m 94.153847,111.13357 c 0,8.41741 -7.963704,12.77431 -17.787433,12.7743 -9.823726,1e-5 -17.787444,-4.35689 -17.787444,-12.7743 0,-4.08897 0.323846,-10.03358 3.382691,-13.369521 3.237983,-3.5313 9.364057,-4.31684 14.404753,-4.338296 5.187546,-0.02198 11.627747,0.798555 14.866597,4.338296 3.050319,3.333701 2.920836,9.286971 2.920836,13.369521 z"
         sodipodi:nodetypes="ssssass" />
    </g>
  </g>
</svg>
