<?xml version="1.0" encoding="UTF-8" standalone="no"?>
<svg
   xmlns:dc="http://purl.org/dc/elements/1.1/"
   xmlns:cc="http://creativecommons.org/ns#"
   xmlns:rdf="http://www.w3.org/1999/02/22-rdf-syntax-ns#"
   xmlns:svg="http://www.w3.org/2000/svg"
   xmlns="http://www.w3.org/2000/svg"
   xmlns:sodipodi="http://sodipodi.sourceforge.net/DTD/sodipodi-0.dtd"
   xmlns:inkscape="http://www.inkscape.org/namespaces/inkscape"
   width="22.122368mm"
   height="52.916668mm"
   viewBox="0 0 22.122368 52.916669"
   version="1.1"
   id="svg8"
   inkscape:version="1.0.1 (0767f8302a, 2020-10-17)"
   sodipodi:docname="take_right3.svg"
   inkscape:export-filename="/home/karine/escoria-assets-testing/prend_objet_droit/perso_prend_objet_droit.png"
   inkscape:export-xdpi="96"
   inkscape:export-ydpi="96">
  <defs
     id="defs2" />
  <sodipodi:namedview
     id="base"
     pagecolor="#ffffff"
     bordercolor="#666666"
     borderopacity="1.0"
     inkscape:pageopacity="0.0"
     inkscape:pageshadow="2"
     inkscape:zoom="0.47490369"
     inkscape:cx="79.848312"
     inkscape:cy="-170.76729"
     inkscape:document-units="mm"
     inkscape:current-layer="layer1"
     inkscape:document-rotation="0"
     showgrid="false"
     inkscape:snap-grids="false"
     inkscape:snap-nodes="true"
     inkscape:snap-global="false"
     inkscape:snap-bbox="false"
     inkscape:window-width="1848"
     inkscape:window-height="1016"
     inkscape:window-x="72"
     inkscape:window-y="27"
     inkscape:window-maximized="1"
     fit-margin-top="0"
     fit-margin-left="0"
     fit-margin-right="0"
     fit-margin-bottom="0"
     showguides="false">
    <inkscape:grid
       type="xygrid"
       id="grid837"
       originx="-248.55523"
       originy="-234.62601" />
  </sodipodi:namedview>
  <metadata
     id="metadata5">
    <rdf:RDF>
      <cc:Work
         rdf:about="">
        <dc:format>image/svg+xml</dc:format>
        <dc:type
           rdf:resource="http://purl.org/dc/dcmitype/StillImage" />
        <dc:title></dc:title>
      </cc:Work>
    </rdf:RDF>
  </metadata>
  <g
     inkscape:label="Calque 1"
     inkscape:groupmode="layer"
     id="layer1"
     transform="translate(-248.55525,-234.62599)">
    <g
       id="g1606"
       transform="matrix(0.44433381,0,0,0.44433381,128.71632,240.82261)">
      <g
         id="g1476">
        <path
           id="rect856-1-3-2-2-2"
           style="fill:#87cdde;fill-opacity:1;stroke:#000000;stroke-width:1.34713;stroke-linecap:square;stroke-miterlimit:4;stroke-dasharray:none;stroke-opacity:1;paint-order:markers stroke fill"
           d="m 280.36123,31.436266 c -0.41733,-2.871751 4.22096,-7.61405 4.22096,-7.61405 l 12.57431,0.610952 c 0,0 3.33544,3.999318 4.55289,10.108198 1.21744,6.108879 -0.78254,26.276141 -0.78254,26.276141 l -12.80828,2.541389 c 0,0 -5.03909,-5.670518 -5.08641,-9.163788 -0.0988,-7.300601 -1.5869,-15.299592 -2.67093,-22.758842 z"
           sodipodi:nodetypes="scczccss" />
        <path
           id="path833-6-9-66-3-9"
           style="fill:#87cdde;fill-opacity:1;stroke:#000000;stroke-width:1.52281;stroke-linecap:square;stroke-miterlimit:4;stroke-dasharray:none;stroke-opacity:1;paint-order:markers stroke fill"
           d="m 312.32635,8.736327 c 2.71596,10.316291 -4.93343,17.12979 -20.70004,15.772055 -11.39016,-0.980853 -18.63543,-5.586482 -20.70004,-15.772055 -1.57219,-7.75626802 -0.0495,-22.984372 20.70004,-21.863302 15.35014,0.829351 18.16555,12.23624798 20.70004,21.863302 z"
           sodipodi:nodetypes="sssss" />
        <path
           id="rect858-8-6-4-7-3"
           style="fill:#2c89a0;fill-opacity:1;stroke:#000000;stroke-width:1.52281;stroke-linecap:square;stroke-miterlimit:4;stroke-dasharray:none;stroke-opacity:1;paint-order:markers stroke fill"
           d="m 288.49093,62.446316 12.43592,-1.628809 -4.7095,19.174499 h -7.72642 z"
           sodipodi:nodetypes="ccccc" />
        <path
           id="rect892-5-0-2-3-9-5-1"
           style="fill:#917c6f;fill-opacity:1;stroke:#000000;stroke-width:1.7069;stroke-linecap:square;stroke-miterlimit:4;stroke-dasharray:none;stroke-opacity:1;paint-order:markers stroke fill"
           d="m 286.93038,88.792998 c 0,0 16.05176,4.963178 20.74417,6.52562 4.69241,1.56246 -0.46954,7.745132 -5.21326,8.886372 -4.74373,1.14124 -15.36049,-10.253572 -15.36049,-10.253572 z"
           sodipodi:nodetypes="czzcc" />
        <path
           id="rect875-9-1-5-9-9"
           style="fill:#87cdde;fill-opacity:1;stroke:#000000;stroke-width:1.52281;stroke-linecap:square;stroke-miterlimit:4;stroke-dasharray:none;stroke-opacity:1;paint-order:markers stroke fill"
           d="m 288.49093,79.992006 8.33214,-1.951148 c 0,0 -1.84957,9.00543 -2.99647,12.765558 -1.14691,3.760132 -6.91665,-0.870339 -6.91665,-0.870339 0,0 -0.34147,-5.211151 0.0582,-6.880979 0.39967,-1.669841 1.5228,-3.063092 1.5228,-3.063092 z"
           sodipodi:nodetypes="cczczc" />
        <path
           id="path833-5-4-0-2-4"
           style="fill:#dcf3f9;fill-opacity:1;stroke:#000000;stroke-width:1.12114;stroke-linecap:square;stroke-miterlimit:4;stroke-dasharray:none;stroke-opacity:1;paint-order:markers stroke fill"
           d="m 313.2172,12.062312 c -10.84599,6.164761 -16.43672,1.799678 -17.23373,-5.569014 -0.82281,-7.607044 -2.81799,-10.7224431 3.60966,-14.3297971 2.28563,-1.282723 3.70069,-1.319835 3.70069,-1.319835 3.12582,1.583927 9.98723,8.87728008 9.92338,21.2186461 z"
           sodipodi:nodetypes="csscc" />
        <path
           id="rect892-5-3-9-1-7-2-7-17-7-7"
           style="fill:#87cdde;fill-opacity:1;stroke:#000000;stroke-width:1.18038;stroke-linecap:square;stroke-miterlimit:4;stroke-dasharray:none;stroke-opacity:1;paint-order:markers stroke fill"
           d="m 291.05214,43.989614 9.52459,7.250386 6.41019,-2.986608 -8.64291,-8.295864 z"
           sodipodi:nodetypes="ccccc" />
        <path
           id="rect892-5-3-9-1-7-2-2-3-0"
           style="fill:#2c89a0;fill-opacity:1;stroke:#000000;stroke-width:1.31436;stroke-linecap:square;stroke-miterlimit:4;stroke-dasharray:none;stroke-opacity:1;paint-order:markers stroke fill"
           d="m 290.34538,43.235706 8.73361,-2.389775 -6.71415,-11.406579 c -2.19384,-2.95748 -4.37646,-5.515932 -7.5117,-3.356139 -3.13521,2.159786 -4.25834,4.328607 -2.57178,7.082192 z"
           sodipodi:nodetypes="cccscc" />
        <ellipse
           style="fill:#000000;fill-opacity:1;stroke:none;stroke-width:1.52281;stroke-linecap:square;paint-order:markers stroke fill"
           id="path1506-7-6-3"
           cx="-293.15686"
           cy="82.456306"
           rx="1.8656018"
           ry="3.4793842"
           transform="matrix(-0.96511671,0.26182005,0.26182005,0.96511671,0,0)" />
        <ellipse
           style="fill:#ffffff;fill-opacity:1;stroke:none;stroke-width:0.658109;stroke-linecap:square;stroke-miterlimit:4;stroke-dasharray:none;paint-order:markers stroke fill"
           id="path1541-2-1-6"
           cx="-304.06763"
           cy="1.0754597"
           rx="1.0082343"
           ry="0.76235312"
           transform="scale(-1,1)" />
        <g
           id="g1427"
           transform="translate(0.35811194,0.3915146)"
           style="stroke-width:1.4;stroke-miterlimit:4;stroke-dasharray:none">
          <path
             id="path839-9-65-8-8-4"
             style="fill:#917c6f;fill-opacity:1;stroke:#000000;stroke-width:1.4;stroke-linecap:butt;stroke-linejoin:round;stroke-miterlimit:4;stroke-dasharray:none;stroke-opacity:1;paint-order:markers stroke fill"
             d="m 302.90849,48.801791 c 0.84497,-1.027283 4.00287,-0.0934 7.2382,-1.125503 1.68422,-0.537284 3.46285,0.594772 5.23728,1.025543 4.22989,1.02687 4.15144,5.261093 -0.82062,2.472723 -1.80186,0.266085 -6.25272,2.440044 -4.8592,3.255791 1.50027,0.779677 2.49527,0.616745 3.48303,0.879572 0.98777,0.262802 0.0805,1.479724 -0.44851,1.799856 -1.44666,0.875519 -2.80575,-0.854691 -4.92976,-1.196526 -2.0666,-0.332596 -4.04976,-1.832661 -4.76241,-2.041541 -2.52746,-0.740801 -2.13621,-2.640528 -0.52368,-4.601031 z"
             sodipodi:nodetypes="ssscczassss" />
          <path
             id="path1403"
             style="fill:#917c6f;stroke:#000000;stroke-width:1.4;stroke-linecap:butt;stroke-linejoin:round;stroke-miterlimit:4;stroke-dasharray:none;paint-order:stroke markers fill"
             d="m 313.9662,48.921704 c 0.59617,0.31413 2.27382,3.064504 1.92896,3.718979 -0.34485,0.654476 -3.63879,0.715242 -3.78581,-0.82623 -0.064,-0.670817 -0.86845,-1.576222 -0.86845,-1.576222"
             sodipodi:nodetypes="cssc" />
          <path
             id="path1403-1"
             style="fill:#917c6f;stroke:#000000;stroke-width:1.4;stroke-linecap:butt;stroke-linejoin:round;stroke-miterlimit:4;stroke-dasharray:none;paint-order:stroke markers fill"
             d="m 302.29074,49.653901 c 1.40729,-1.377124 3.57575,-1.540581 5.10967,-1.057508 1.19019,0.374821 2.60566,0.933569 3.45459,1.484918 2.53839,1.648597 3.34962,3.968981 1.69797,4.622877 -0.68783,0.272313 -1.69328,0.374197 -2.42661,-0.989612 -0.11646,-0.216593 -0.51307,-0.731985 -0.83499,-0.866358 -0.74689,-0.311763 -0.91916,0.269333 -1.86961,0.349683 -3.54527,0.29971 -6.04638,-0.524181 -6.04638,-0.524181"
             sodipodi:nodetypes="cssssssc" />
        </g>
        <path
           id="path1403-1-0"
           style="fill:none;stroke:#917d70;stroke-width:0.865;stroke-linecap:butt;stroke-linejoin:round;stroke-miterlimit:4;stroke-dasharray:none;stroke-opacity:1;paint-order:stroke markers fill"
           d="m 303.00442,50.237688 c 1.40729,-1.377124 3.78497,-1.608123 5.31889,-1.12505 1.19019,0.374821 2.18468,0.89253 3.03361,1.443879"
           sodipodi:nodetypes="csc" />
      </g>
    </g>
  </g>
</svg>
