<?xml version="1.0" encoding="UTF-8" standalone="no"?>
<svg
   xmlns:dc="http://purl.org/dc/elements/1.1/"
   xmlns:cc="http://creativecommons.org/ns#"
   xmlns:rdf="http://www.w3.org/1999/02/22-rdf-syntax-ns#"
   xmlns:svg="http://www.w3.org/2000/svg"
   xmlns="http://www.w3.org/2000/svg"
   xmlns:sodipodi="http://sodipodi.sourceforge.net/DTD/sodipodi-0.dtd"
   xmlns:inkscape="http://www.inkscape.org/namespaces/inkscape"
   width="30mm"
   height="52.916668mm"
   viewBox="0 0 30.000001 52.916668"
   version="1.1"
   id="svg8"
   inkscape:version="1.0.1 (0767f8302a, 2020-10-17)"
   sodipodi:docname="pick_up2.svg"
   inkscape:export-filename="/home/karine/escoria-assets-testing/prend_objet_droit/perso_prend_objet_droit.png"
   inkscape:export-xdpi="96"
   inkscape:export-ydpi="96">
  <defs
     id="defs2" />
  <sodipodi:namedview
     id="base"
     pagecolor="#ffffff"
     bordercolor="#666666"
     borderopacity="1.0"
     inkscape:pageopacity="0.0"
     inkscape:pageshadow="2"
     inkscape:zoom="3.3145997"
     inkscape:cx="15.981681"
     inkscape:cy="87.587299"
     inkscape:document-units="mm"
     inkscape:current-layer="layer1"
     inkscape:document-rotation="0"
     showgrid="false"
     inkscape:snap-grids="false"
     inkscape:snap-nodes="true"
     inkscape:snap-global="false"
     inkscape:snap-bbox="false"
     inkscape:window-width="1848"
     inkscape:window-height="1016"
     inkscape:window-x="72"
     inkscape:window-y="27"
     inkscape:window-maximized="1"
     fit-margin-top="0"
     fit-margin-left="0"
     fit-margin-right="0"
     fit-margin-bottom="0"
     showguides="false">
    <inkscape:grid
       type="xygrid"
       id="grid837"
       originx="-248.35595"
       originy="-110.24218" />
  </sodipodi:namedview>
  <metadata
     id="metadata5">
    <rdf:RDF>
      <cc:Work
         rdf:about="">
        <dc:format>image/svg+xml</dc:format>
        <dc:type
           rdf:resource="http://purl.org/dc/dcmitype/StillImage" />
        <dc:title></dc:title>
      </cc:Work>
    </rdf:RDF>
  </metadata>
  <g
     inkscape:label="Calque 1"
     inkscape:groupmode="layer"
     id="layer1"
     transform="translate(-248.35596,-110.24219)">
    <g
       id="g1588"
       transform="matrix(0.44433382,0,0,0.44433382,155.59948,116.35344)">
      <path
         id="rect856-1-3-2-2"
         style="fill:#87cdde;fill-opacity:1;stroke:#000000;stroke-width:1.34713;stroke-linecap:square;stroke-miterlimit:4;stroke-dasharray:none;stroke-opacity:1;paint-order:markers stroke fill"
         d="m 219.41055,31.628389 c -0.41733,-2.87175 4.22096,-7.61405 4.22096,-7.61405 l 12.57431,0.610952 c 0,0 3.33544,3.999318 4.55289,10.108198 1.21744,6.10888 -0.78254,26.27614 -0.78254,26.27614 l -12.80828,2.54139 c 0,0 -5.03909,-5.67052 -5.08641,-9.16379 -0.0988,-7.3006 -1.5869,-15.29959 -2.67093,-22.75884 z"
         sodipodi:nodetypes="scczccss" />
      <path
         id="path833-6-9-66-3"
         style="fill:#87cdde;fill-opacity:1;stroke:#000000;stroke-width:1.52281;stroke-linecap:square;stroke-miterlimit:4;stroke-dasharray:none;stroke-opacity:1;paint-order:markers stroke fill"
         d="M 251.37567,8.9284502 C 254.09163,19.24474 246.44224,26.058239 230.67563,24.700504 219.28547,23.719651 212.0402,19.114023 209.97559,8.9284502 c -1.57219,-7.756268 -0.0495,-22.9843722 20.70004,-21.8633022 15.35014,0.829351 18.16555,12.23624818 20.70004,21.8633022 z"
         sodipodi:nodetypes="sssss" />
      <path
         id="rect858-8-6-4-7"
         style="fill:#2c89a0;fill-opacity:1;stroke:#000000;stroke-width:1.52281;stroke-linecap:square;stroke-miterlimit:4;stroke-dasharray:none;stroke-opacity:1;paint-order:markers stroke fill"
         d="m 227.54025,62.638439 12.43592,-1.62881 -4.7095,19.1745 h -7.72642 z"
         sodipodi:nodetypes="ccccc" />
      <path
         id="rect892-5-0-2-3-9-5"
         style="fill:#917c6f;fill-opacity:1;stroke:#000000;stroke-width:1.7069;stroke-linecap:square;stroke-miterlimit:4;stroke-dasharray:none;stroke-opacity:1;paint-order:markers stroke fill"
         d="m 225.9797,88.985119 c 0,0 16.05176,4.96318 20.74417,6.52562 4.69241,1.56246 -0.46954,7.745131 -5.21326,8.886371 -4.74373,1.14124 -15.36049,-10.253571 -15.36049,-10.253571 z"
         sodipodi:nodetypes="czzcc" />
      <path
         id="rect875-9-1-5-9"
         style="fill:#87cdde;fill-opacity:1;stroke:#000000;stroke-width:1.52281;stroke-linecap:square;stroke-miterlimit:4;stroke-dasharray:none;stroke-opacity:1;paint-order:markers stroke fill"
         d="m 227.54025,80.184129 8.33214,-1.95115 c 0,0 -1.84957,9.00543 -2.99647,12.76556 -1.14691,3.76013 -6.91665,-0.87034 -6.91665,-0.87034 0,0 -0.34147,-5.21115 0.0582,-6.88098 0.39967,-1.66984 1.5228,-3.06309 1.5228,-3.06309 z"
         sodipodi:nodetypes="cczczc" />
      <path
         id="path833-5-4-0-2"
         style="fill:#dcf3f9;fill-opacity:1;stroke:#000000;stroke-width:1.12114;stroke-linecap:square;stroke-miterlimit:4;stroke-dasharray:none;stroke-opacity:1;paint-order:markers stroke fill"
         d="m 252.26652,12.254435 c -10.84599,6.16476 -16.43672,1.799678 -17.23373,-5.5690138 -0.82281,-7.60704402 -2.81799,-10.722443 3.60966,-14.329797 2.28563,-1.282723 3.70069,-1.319835 3.70069,-1.319835 3.12582,1.583927 9.98723,8.87727998 9.92338,21.2186458 z"
         sodipodi:nodetypes="csscc" />
      <path
         id="rect892-5-3-9-1-7-2-7-17-7"
         style="fill:#87cdde;fill-opacity:1;stroke:#000000;stroke-width:1.30959;stroke-linecap:square;stroke-miterlimit:4;stroke-dasharray:none;stroke-opacity:1;paint-order:markers stroke fill"
         d="m 227.66325,45.153483 14.46097,5.933743 5.11984,-5.549862 -11.80471,-6.462917 z"
         sodipodi:nodetypes="ccccc" />
      <path
         id="path839-9-65-8-8"
         style="fill:#917c6f;fill-opacity:1;stroke:#000000;stroke-width:1.35718;stroke-linecap:square;stroke-miterlimit:4;stroke-dasharray:none;stroke-opacity:1;paint-order:markers stroke fill"
         d="m 244.27018,53.844572 c 1.73085,1.83858 5.03843,2.393725 12.06971,1.839854 1.44994,-0.114208 1.58228,-2.105547 1.89007,-2.852537 0.26994,-0.655102 -1.10721,-1.701597 -2.58762,-2.307342 -2.15247,-0.547255 -3.08561,-2.047652 -2.29489,-2.338056 1.63643,0.07473 2.42792,1.521736 3.4878,1.17475 1.05989,-0.346963 0.74634,-2.547625 -0.53327,-2.951638 -0.86597,-0.27339 -5.29355,-2.46636 -7.58399,-1.97715 -2.22856,0.476006 -3.42265,2.163033 -4.03991,3.752895 -1.04082,2.680808 -2.36423,3.581127 -0.40791,5.659221 z"
         sodipodi:nodetypes="ssscczsssss" />
      <path
         style="fill:#917c6f;fill-opacity:1;stroke:#000000;stroke-width:0.845034;stroke-linecap:butt;stroke-linejoin:miter;stroke-miterlimit:4;stroke-dasharray:none;stroke-opacity:1"
         d="m 253.35828,56.208355 -3.28436,-1.558236 v 0"
         id="path1529-7-9" />
      <path
         id="rect892-5-3-9-1-7-2-2-3"
         style="fill:#2c89a0;fill-opacity:1;stroke:#000000;stroke-width:1.31436;stroke-linecap:square;stroke-miterlimit:4;stroke-dasharray:none;stroke-opacity:1;paint-order:markers stroke fill"
         d="m 227.0273,43.987494 c 3.36201,0.10329 6.72402,1.286236 10.08603,-2.814924 l -5.49868,-10.352221 c -1.59614,-3.318424 -3.25659,-6.242875 -6.74315,-4.713717 -3.48653,1.529157 -4.99886,3.446988 -3.86239,6.469427 z"
         sodipodi:nodetypes="cccscc" />
      <ellipse
         style="fill:#000000;fill-opacity:1;stroke:none;stroke-width:1.52281;stroke-linecap:square;paint-order:markers stroke fill"
         id="path1506-7-6"
         cx="-234.28204"
         cy="66.683624"
         rx="1.8656018"
         ry="3.4793842"
         transform="matrix(-0.96511671,0.26182005,0.26182005,0.96511671,0,0)" />
      <ellipse
         style="fill:#ffffff;fill-opacity:1;stroke:none;stroke-width:0.658109;stroke-linecap:square;stroke-miterlimit:4;stroke-dasharray:none;paint-order:markers stroke fill"
         id="path1541-2-1"
         cx="-243.11696"
         cy="1.2675836"
         rx="1.0082343"
         ry="0.76235306"
         transform="scale(-1,1)" />
      <path
         style="fill:#917c6f;fill-opacity:1;stroke:#000000;stroke-width:0.845034;stroke-linecap:butt;stroke-linejoin:miter;stroke-miterlimit:4;stroke-dasharray:none;stroke-opacity:1"
         d="m 257.57341,54.621862 -5.81516,-2.48118"
         id="path1529-7-9-6"
         sodipodi:nodetypes="cc" />
    </g>
  </g>
</svg>
